<svg id="Capa_1" xmlns="http://www.w3.org/2000/svg" viewBox="-459 461.5 79.5 79.5"><style>.st0{fill:none;stroke:#3c5a99;stroke-miterlimit:10}.st1{fill:#3c5a99}</style><circle class="st0" cx="-419.3" cy="501.1" r="38.5"/><path class="st1" d="M-408.4 478.2h-6c-6.7 0-11.1 4.5-11.1 11.3v5.2h-6c-.5 0-.9.4-.9.9v7.6c0 .5.4.9.9.9h6v19.1c0 .5.4.9.9.9h7.8c.5 0 .9-.4.9-.9v-19.1h7c.5 0 .9-.4.9-.9v-7.6c0-.2-.1-.5-.3-.7-.2-.2-.4-.3-.7-.3h-7v-4.4c0-2.1.5-3.2 3.3-3.2h4c.5 0 .9-.4.9-.9v-7c.3-.5-.1-.9-.6-.9z"/></svg>