<svg id="Capa_1" xmlns="http://www.w3.org/2000/svg" viewBox="-459 461.5 79.5 79.5"><style>.st0{fill:none;stroke:#bf4f44;stroke-miterlimit:10}.st1{fill:#bf4f44}</style><circle class="st0" cx="-419.3" cy="501.1" r="38.5"/><path class="st1" d="M-443.3 500.5c.1-7.9 7.4-14.7 15.2-14.5 3.8-.2 7.3 1.5 10.2 3.8-1.2 1.4-2.5 2.7-3.9 4-3.5-2.4-8.4-3.1-11.9-.3-5 3.4-5.2 11.5-.4 15.2 4.6 4.2 13.4 2.1 14.7-4.3-2.9 0-5.8 0-8.7-.1v-5.2h14.6c.3 4.1-.2 8.4-2.8 11.8-3.8 5.3-11.4 6.9-17.3 4.6-6-2.3-10.2-8.6-9.7-15zM-404 494.7h4.3v4.4h4.4v4.3h-4.4v4.4h-4.3v-4.3h-4.4v-4.3h4.4c-.1-1.6-.1-3.1 0-4.5z"/></svg>