<?xml version="1.0" encoding="UTF-8" standalone="no"?>
<svg width="36px" height="36px" viewBox="0 0 36 36" version="1.1" xmlns="http://www.w3.org/2000/svg" xmlns:xlink="http://www.w3.org/1999/xlink">
    <!-- Generator: Sketch 3.7.2 (28276) - http://www.bohemiancoding.com/sketch -->
    <title>icon_auth_facebook</title>
    <desc>Created with Sketch.</desc>
    <defs>
        <rect id="path-1" x="0" y="0" width="36" height="36" rx="100"></rect>
        <mask id="mask-2" maskContentUnits="userSpaceOnUse" maskUnits="objectBoundingBox" x="0" y="0" width="36" height="36" fill="white">
            <use xlink:href="#path-1"></use>
        </mask>
        <mask id="mask-4" maskContentUnits="userSpaceOnUse" maskUnits="objectBoundingBox" x="0" y="0" width="36" height="36" fill="white">
            <use xlink:href="#path-1"></use>
        </mask>
    </defs>
    <g id="Update" stroke="none" stroke-width="1" fill="none" fill-rule="evenodd">
        <g id="1_Auth" transform="translate(-104.000000, -396.000000)">
            <g id="icon_auth_facebook" transform="translate(104.000000, 396.000000)">
                <mask id="mask-3" fill="white">
                    <use xlink:href="#path-1"></use>
                </mask>
                <g id="Mask" stroke="#EBEBEB" mask="url(#mask-2)" stroke-width="2" fill="#FFFFFF">
                    <use mask="url(#mask-4)" xlink:href="#path-1"></use>
                </g>
                <path d="M19.1924622,25.4048811 L19.1924622,18.3781279 L21.5511894,18.3781279 L21.904603,15.6392956 L19.1924622,15.6392956 L19.1924622,13.8910102 C19.1924622,13.0981773 19.4129132,12.557924 20.5497683,12.557924 L22,12.5569354 L22,10.1077541 C21.7493976,10.0741427 20.8883534,10 19.8869323,10 C17.7961075,10 16.3646586,11.2762434 16.3646586,13.6196478 L16.3646586,15.6392956 L14,15.6392956 L14,18.3781279 L16.3646586,18.3781279 L16.3646586,25.4048811" id="Facebook" fill="#43619C" mask="url(#mask-3)"></path>
            </g>
        </g>
    </g>
</svg>