<?xml version="1.0" encoding="UTF-8" standalone="no"?>
<svg width="19px" height="24px" viewBox="0 0 19 24" version="1.1" xmlns="http://www.w3.org/2000/svg" xmlns:xlink="http://www.w3.org/1999/xlink">
    <!-- Generator: Sketch 3.7.2 (28276) - http://www.bohemiancoding.com/sketch -->
    <title>icon_proxy_server</title>
    <desc>Created with Sketch.</desc>
    <defs>
        <polyline id="path-1" points="0 0 18.995 0 18.995 24 0 24"></polyline>
        <polyline id="path-3" points="0 0 18.995 0 18.995 24 0 24"></polyline>
        <polygon id="path-5" points="0 0 18.995 0 18.995 24 0 24"></polygon>
    </defs>
    <g id="Update" stroke="none" stroke-width="1" fill="none" fill-rule="evenodd">
        <g id="5_Settings" transform="translate(-29.000000, -310.000000)">
            <g id="item3" transform="translate(0.000000, 310.000000)">
                <g id="icon_proxy_server" transform="translate(29.000000, 0.000000)">
                    <g id="Group-3">
                        <mask id="mask-2" fill="white">
                            <use xlink:href="#path-1"></use>
                        </mask>
                        <g id="Clip-2"></g>
                        <path d="M2.7222,23.9981 L5.9272,24.0001 C5.9272,22.6731 6.1872,21.3721 6.6982,20.1321 C7.4612,18.2731 8.7412,16.6991 10.3982,15.5771 C11.1562,15.0641 11.9732,14.6591 12.8272,14.3691 L12.8272,16.9211 L18.9952,12.5961 L12.8272,8.2721 L12.8272,11.0281 C11.3302,11.4071 9.9012,12.0461 8.6042,12.9231 C6.4232,14.3971 4.7392,16.4671 3.7322,18.9101 C3.0632,20.5391 2.7222,22.2501 2.7222,23.9981" id="Fill-1" fill="#9AD24E" mask="url(#mask-2)"></path>
                    </g>
                    <g id="Group-6">
                        <mask id="mask-4" fill="white">
                            <use xlink:href="#path-3"></use>
                        </mask>
                        <g id="Clip-5"></g>
                        <polyline id="Fill-4" fill="#00AAFF" mask="url(#mask-4)" points="6.0966 6.1683 8.6496 6.1683 4.3246 0.0003 -0.0004 6.1683 2.7556 6.1683"></polyline>
                    </g>
                    <mask id="mask-6" fill="white">
                        <use xlink:href="#path-5"></use>
                    </mask>
                    <g id="Clip-8"></g>
                    <polygon id="Fill-7" fill="#00AAFF" mask="url(#mask-6)" points="2.722 5.863 5.927 5.863 5.927 24 2.722 24"></polygon>
                </g>
            </g>
        </g>
    </g>
</svg>