<?xml version="1.0" encoding="UTF-8" standalone="no"?>
<svg width="16px" height="16px" viewBox="0 0 16 16" version="1.1" xmlns="http://www.w3.org/2000/svg" xmlns:xlink="http://www.w3.org/1999/xlink">
    <!-- Generator: Sketch 3.7.2 (28276) - http://www.bohemiancoding.com/sketch -->
    <title>icon_personal_server</title>
    <desc>Created with Sketch.</desc>
    <defs>
        <circle id="path-1" cx="5" cy="5" r="5"></circle>
        <mask id="mask-2" maskContentUnits="userSpaceOnUse" maskUnits="objectBoundingBox" x="0" y="0" width="10" height="10" fill="white">
            <use xlink:href="#path-1"></use>
        </mask>
    </defs>
    <g id="Update" stroke="none" stroke-width="1" fill="none" fill-rule="evenodd">
        <g id="3_MainScreen" transform="translate(-23.000000, -375.000000)">
            <g id="Group-2" transform="translate(23.000000, 162.000000)">
                <g id="personal_Server" transform="translate(0.000000, 210.000000)">
                    <g id="icon_personal_server" transform="translate(0.000000, 3.000000)">
                        <path d="M0,4.5 C0,3.67157288 0.6752491,3 1.49824524,3 L12.5017548,3 C13.3292128,3 14,3.66579723 14,4.5 C14,5.32842712 13.3247509,6 12.5017548,6 L1.00684547,6 C0.450780073,6 0,5.55733967 0,5.00104344 L0,4.5 Z M12.5,5 C12.7761424,5 13,4.77614237 13,4.5 C13,4.22385763 12.7761424,4 12.5,4 C12.2238576,4 12,4.22385763 12,4.5 C12,4.77614237 12.2238576,5 12.5,5 Z" id="Combined-Shape" fill="#00AAFF" transform="translate(7.000000, 4.500000) scale(-1, 1) translate(-7.000000, -4.500000) "></path>
                        <path d="M0,9.5 C0,8.67157288 0.663885847,8 1.49309635,8 L13.5069036,8 C14.331518,8 15,8.66579723 15,9.5 C15,10.3284271 14.3361142,11 13.5069036,11 L1.49309635,11 C0.668482007,11 0,10.3342028 0,9.5 Z M13.5,10 C13.7761424,10 14,9.77614237 14,9.5 C14,9.22385763 13.7761424,9 13.5,9 C13.2238576,9 13,9.22385763 13,9.5 C13,9.77614237 13.2238576,10 13.5,10 Z" id="Combined-Shape-Copy-2" fill="#00AAFF" transform="translate(7.500000, 9.500000) scale(-1, 1) translate(-7.500000, -9.500000) "></path>
                        <path d="M0,14.5 C0,13.6715729 0.663885847,13 1.49309635,13 L13.5069036,13 C14.331518,13 15,13.6657972 15,14.5 C15,15.3284271 14.3361142,16 13.5069036,16 L1.49309635,16 C0.668482007,16 0,15.3342028 0,14.5 Z M13.5,15 C13.7761424,15 14,14.7761424 14,14.5 C14,14.2238576 13.7761424,14 13.5,14 C13.2238576,14 13,14.2238576 13,14.5 C13,14.7761424 13.2238576,15 13.5,15 Z" id="Combined-Shape-Copy-3" fill="#00AAFF" transform="translate(7.500000, 14.500000) scale(-1, 1) translate(-7.500000, -14.500000) "></path>
                        <g id="Group-4" transform="translate(6.000000, 0.000000)">
                            <use id="Oval-14" stroke="#00AAFF" mask="url(#mask-2)" fill="#FFFFFF" xlink:href="#path-1"></use>
                            <path d="M5,8.6 C3.75,8.6 2.645,7.96 2,6.99 C2.015,5.995 4,5.45 5,5.45 C5.995,5.45 7.985,5.995 8,6.99 C7.355,7.96 6.25,8.6 5,8.6 Z M5,1.5 C5.83,1.5 6.5,2.17 6.5,3 C6.5,3.83 5.83,4.5 5,4.5 C4.17,4.5 3.5,3.83 3.5,3 C3.5,2.17 4.17,1.5 5,1.5 Z" id="Combined-Shape" fill="#9AD24E"></path>
                        </g>
                    </g>
                </g>
            </g>
        </g>
    </g>
</svg>