<?xml version="1.0" encoding="UTF-8" standalone="no"?>
<svg width="16px" height="16px" viewBox="0 0 16 16" version="1.1" xmlns="http://www.w3.org/2000/svg" xmlns:xlink="http://www.w3.org/1999/xlink">
    <!-- Generator: Sketch 3.7.2 (28276) - http://www.bohemiancoding.com/sketch -->
    <title>icon_no_connection</title>
    <desc>Created with Sketch.</desc>
    <defs></defs>
    <g id="Update" stroke="none" stroke-width="1" fill="none" fill-rule="evenodd">
        <g id="7_No_Connection" transform="translate(-164.000000, -96.000000)" fill="#FFFFFF">
            <g id="Switch_OFF" transform="translate(100.000000, 79.000000)">
                <g id="Group">
                    <g id="icon_no_connection" transform="translate(64.000000, 17.000000)">
                        <path d="M14.3775,3.484 L14.1425,3.5585 L12.891,3.67 L12.5375,4.2345 L12.281,4.153 L11.285,3.255 L11.1405,2.788 L10.947,2.29 L10.321,1.7285 L9.5825,1.584 L9.5655,1.922 L10.289,2.628 L10.643,3.045 L10.245,3.253 L9.921,3.1575 L9.4355,2.955 L9.452,2.5635 L8.815,2.3015 L8.6035,3.222 L7.9615,3.3675 L8.025,3.881 L8.8615,4.042 L9.006,3.2215 L9.6965,3.3235 L10.0175,3.5115 L10.5325,3.5115 L10.885,4.2175 L11.8195,5.1655 L11.751,5.534 L10.9975,5.438 L9.6955,6.0955 L8.758,7.22 L8.636,7.718 L8.2995,7.718 L7.6725,7.429 L7.0635,7.718 L7.215,8.3605 L7.48,8.055 L7.946,8.0405 L7.9135,8.6175 L8.2995,8.7305 L8.685,9.1635 L9.3145,8.9865 L10.0335,9.1 L10.8685,9.3245 L11.2855,9.3735 L11.9925,10.176 L13.357,10.9785 L12.4745,12.6645 L11.543,13.0975 L11.1895,14.061 L9.8415,14.961 L9.698,15.48 C13.144,14.65 15.7075,11.5545 15.7075,7.8535 C15.7065,6.237 15.2165,4.7325 14.3775,3.484 L14.3775,3.484 Z" id="Shape"></path>
                        <path d="M8.7575,11.9585 L8.1855,10.898 L8.7105,9.804 L8.1855,9.647 L7.596,9.055 L6.29,8.762 L5.8565,7.855 L5.8565,8.3935 L5.6655,8.3935 L4.54,6.8675 L4.54,5.614 L3.715,4.2725 L2.405,4.506 L1.5225,4.506 L1.0785,4.215 L1.645,3.766 L1.08,3.8965 C0.399,5.0595 0.002,6.409 0.002,7.8545 C0.002,12.191 3.5175,15.708 7.8545,15.708 C8.1885,15.708 8.516,15.6785 8.84,15.6395 L8.758,14.688 C8.758,14.688 9.1185,13.275 9.1185,13.227 C9.118,13.1785 8.7575,11.9585 8.7575,11.9585 L8.7575,11.9585 Z" id="Shape"></path>
                        <path d="M2.92,2.5325 L4.315,2.338 L4.958,1.9855 L5.6815,2.194 L6.8375,2.13 L7.2335,1.5075 L7.811,1.6025 L9.2135,1.471 L9.6,1.045 L10.145,0.681 L10.916,0.797 L11.197,0.7545 C10.1815,0.2765 9.0515,0 7.854,0 C5.4165,0 3.237,1.111 1.798,2.8555 L1.802,2.8555 L2.92,2.5325 L2.92,2.5325 Z M8.186,0.781 L8.988,0.3395 L9.503,0.637 L8.7575,1.2045 L8.0455,1.276 L7.725,1.068 L8.186,0.781 L8.186,0.781 Z M5.8105,0.8455 L6.1645,0.993 L6.628,0.8455 L6.8805,1.283 L5.8105,1.564 L5.296,1.263 C5.2955,1.263 5.799,0.939 5.8105,0.8455 L5.8105,0.8455 Z" id="Shape"></path>
                    </g>
                </g>
            </g>
        </g>
    </g>
</svg>