<?xml version="1.0" encoding="UTF-8"?>
<svg width="140px" height="20px" viewBox="0 0 140 20" version="1.1" xmlns="http://www.w3.org/2000/svg" xmlns:xlink="http://www.w3.org/1999/xlink">
    <!-- Generator: Sketch 40.1 (33804) - http://www.bohemiancoding.com/sketch -->
    <title>extension_toolbar</title>
    <desc>Created with Sketch.</desc>
    <defs>
        <polyline id="path-1" points="0 0.13877551 139.630816 0.13877551 139.630816 20 0 20"></polyline>
        <path d="M11.8088247,12.591321 C13.0298728,12.5382936 13.9791236,11.0630175 13.9197756,9.26414201 C13.8654222,7.61763139 12.9680873,6.25408126 11.8810188,6.01760543 L11.8807671,6.01545998 C11.8762377,6.01450645 11.8717082,6.01474484 11.8671788,6.01402969 C11.8608879,6.01259939 11.854597,6.01021556 11.8483061,6.00902365 L11.8485577,6.01188424 C11.1155413,5.88101203 10.45097,6.2786347 10.084336,6.83692742 C9.20033788,8.18331399 9.65806421,10.5711954 8.59188145,11.8799175 C8.10798495,12.4737292 7.44089728,12.7552594 6.7793456,12.6332074 C5.68774758,12.379568 4.81809273,11.0219774 4.7637393,9.37403652 C4.70309496,7.53634282 5.70334903,6.034769 6.95800733,6.01975088 L6.95684319,6.01366714 C8.2000103,6.00198269 9.25543492,7.47240974 9.31554372,9.30058371 C9.3180406,9.37585198 9.31878966,9.45040793 9.31779091,9.52425157 C9.44787841,8.61628355 9.5360183,7.68908296 9.91928952,6.99267339 C9.27896146,5.22567889 8.00564939,4.01515202 6.57705221,4.02889276 C4.56972775,4.05285365 2.9849227,6.4540845 3.08180265,9.39406069 C3.1696237,12.0515531 4.5853292,14.2344253 6.33646581,14.6127389 L6.33596254,14.6155995 C6.34627962,14.617745 6.35609344,14.6186985 6.36641052,14.6206056 C6.37169488,14.6217975 6.37697925,14.6237045 6.38226361,14.6248964 L6.38276688,14.6232278 C7.54683614,14.8387259 8.34955575,14.3648207 8.85408641,13.7905563 C10.9265625,11.4315192 10.0272146,9.21026748 10.7901757,7.89344039 C11.0370308,7.46721179 11.4562568,7.13848178 11.9947584,7.23907936 C12.6683886,7.39307471 13.2401061,8.24815413 13.2738254,9.27200865 C13.3115708,10.4112405 12.6963202,11.3418873 11.9185126,11.3511842 L11.9150904,11.3779413 C11.1998014,11.3581099 10.5852527,10.5869704 10.4627067,9.592945 C10.4042966,10.220667 10.3583304,10.9236395 10.1376417,11.6716193 C10.5716543,12.259811 11.1803892,12.6227277 11.8058853,12.6153455 L11.8088247,12.591321 L11.8088247,12.591321 Z" id="path-3"></path>
        <filter x="-50%" y="-50%" width="200%" height="200%" filterUnits="objectBoundingBox" id="filter-4">
            <feOffset dx="0" dy="0" in="SourceAlpha" result="shadowOffsetOuter1"></feOffset>
            <feGaussianBlur stdDeviation="0.5" in="shadowOffsetOuter1" result="shadowBlurOuter1"></feGaussianBlur>
            <feColorMatrix values="0 0 0 0 0   0 0 0 0 0   0 0 0 0 0  0 0 0 0.272503397 0" type="matrix" in="shadowBlurOuter1"></feColorMatrix>
        </filter>
    </defs>
    <g id="Page-1" stroke="none" stroke-width="1" fill="none" fill-rule="evenodd">
        <g id="extension_toolbar">
            <g id="icon_logo_vpn">
                <path d="M100.638571,16.7592449 L99.5697959,16.7592449 L99.5697959,11.0249592 C99.5697959,8.83332653 101.181429,7.05026531 103.162245,7.05026531 C105.143265,7.05026531 106.754898,8.83332653 106.754898,11.0249592 L105.686122,11.0249592 C105.686122,9.4225102 104.553878,8.11904082 103.162245,8.11904082 C101.770816,8.11904082 100.638571,9.4225102 100.638571,11.0249592 L100.638571,16.7592449 Z" id="Fill-1" fill="#00AAFF"></path>
                <path d="M112.871429,16.7592449 L111.802653,16.7592449 L111.802653,11.0249592 C111.802653,9.4225102 110.670408,8.11904082 109.278571,8.11904082 C107.887143,8.11904082 106.754898,9.4225102 106.754898,11.0249592 L106.754898,16.7592449 L105.686122,16.7592449 L105.686122,11.0249592 C105.686122,8.83332653 107.297755,7.05026531 109.278571,7.05026531 C111.259796,7.05026531 112.871429,8.83332653 112.871429,11.0249592 L112.871429,16.7592449 Z" id="Fill-3" fill="#00AAFF"></path>
                <path d="M37.9447347,10.8728163 L44.2912653,10.8728163 C45.682898,10.8728163 46.8151429,9.56934694 46.8151429,7.96689796 C46.8151429,6.36444898 45.682898,5.06077551 44.2912653,5.06077551 L37.9447347,5.06077551 L37.9447347,10.8728163 Z M37.9447347,16.7593469 L36.8759592,16.7593469 L36.8759592,3.992 L44.2912653,3.992 C46.2722857,3.992 47.8839184,5.77526531 47.8839184,7.96689796 C47.8839184,10.1585306 46.2722857,11.9415918 44.2912653,11.9415918 L37.9447347,11.9415918 L37.9447347,16.7593469 Z" id="Fill-5" fill="#00AAFF"></path>
                <polygon id="Fill-7" fill="#00AAFF" points="60.881449 16.9113265 59.7026735 16.9113265 50.9422653 5.59581633 50.9422653 16.7592857 49.8732857 16.7592857 49.8732857 3.99193878 51.0522653 3.99193878 59.8126735 15.3072449 59.8126735 3.99193878 60.881449 3.99193878"></polygon>
                <g id="Group-11">
                    <mask id="mask-2" fill="white">
                        <use xlink:href="#path-1"></use>
                    </mask>
                    <g id="Clip-10"></g>
                    <path d="M135.068388,8.07914286 C133.12002,8.07914286 131.534714,9.82955102 131.534714,11.9805714 C131.534714,14.132 133.12002,15.8824082 135.068388,15.8824082 C137.016755,15.8824082 138.601857,14.132 138.601857,11.9805714 C138.601857,9.82955102 137.016755,8.07914286 135.068388,8.07914286 M135.068388,16.9113878 C132.552673,16.9113878 130.505735,14.699551 130.505735,11.9805714 C130.505735,9.262 132.552673,7.05016327 135.068388,7.05016327 C137.584306,7.05016327 139.630837,9.262 139.630837,11.9805714 C139.630837,14.699551 137.584306,16.9113878 135.068388,16.9113878" id="Fill-9" fill="#00AAFF" mask="url(#mask-2)"></path>
                </g>
                <path d="M91.4637755,16.7592449 L90.395,16.7592449 L90.395,12.171898 C90.395,9.93720408 88.7480612,8.11904082 86.7241837,8.11904082 C84.700102,8.11904082 83.0537755,9.93720408 83.0537755,12.171898 L83.0537755,16.7592449 L81.9847959,16.7592449 L81.9847959,12.171898 C81.9847959,9.34781633 84.1107143,7.05026531 86.7241837,7.05026531 C89.337449,7.05026531 91.4637755,9.34781633 91.4637755,12.171898 L91.4637755,16.7592449 Z" id="Fill-12" fill="#00AAFF"></path>
                <path d="M74.491449,17.1207347 C71.456551,17.1207347 68.9873673,14.448898 68.9873673,11.1648163 L68.9873673,3.97114286 L70.0563469,3.97114286 L70.0563469,11.1648163 C70.0563469,13.8595102 72.0459388,16.0519592 74.491449,16.0519592 C76.9369592,16.0519592 78.9267551,13.8595102 78.9267551,11.1648163 L78.9267551,3.97114286 L79.9955306,3.97114286 L79.9955306,11.1648163 C79.9955306,14.448898 77.5263469,17.1207347 74.491449,17.1207347" id="Fill-14" fill="#00AAFF"></path>
                <path d="M121.466306,11.4661837 L128.472429,11.4661837 C128.243653,9.55720408 126.75998,8.0792449 124.969571,8.0792449 C123.178959,8.0792449 121.695082,9.55720408 121.466306,11.4661837 M124.969571,16.9112857 C122.453653,16.9112857 120.406918,14.699449 120.406918,11.9806735 C120.406918,9.26210204 122.453653,7.05026531 124.969571,7.05026531 C127.485286,7.05026531 129.53202,9.26210204 129.53202,11.9806735 L129.53202,12.4951633 L121.466306,12.4951633 C121.695082,14.4041429 123.179367,15.9227143 124.969571,15.8823061 C126.336918,15.8514898 127.163857,15.2808776 127.828347,14.2737347 L128.687122,14.8402653 C127.83202,16.137 126.622224,16.9112857 124.969571,16.9112857" id="Fill-16" fill="#00AAFF"></path>
                <polygon id="Fill-18" fill="#00AAFF" points="139.630816 16.7591837 138.562041 16.7591837 138.562041 4.14387755 139.630816 4.14387755"></polygon>
                <polygon id="Fill-20" fill="#00AAFF" points="118.987959 16.7591837 117.919184 16.7591837 117.919184 4.14387755 118.987959 4.14387755"></polygon>
                <polygon id="Fill-21" fill="#00AAFF" points="94.5220408 16.7591837 93.4532653 16.7591837 93.4532653 4.14387755 94.5220408 4.14387755"></polygon>
                <polygon id="Fill-22" fill="#00AAFF" points="115.929388 16.7591837 114.860612 16.7591837 114.860612 7.96673469 115.929388 7.96673469"></polygon>
                <polygon id="Fill-23" fill="#00AAFF" points="115.929388 7.2022449 114.860612 7.2022449 114.860612 4.90857143 115.929388 4.90857143"></polygon>
                <polygon id="Fill-24" fill="#00AAFF" points="97.5802041 16.7591837 96.5114286 16.7591837 96.5114286 7.96673469 97.5802041 7.96673469"></polygon>
                <polygon id="Fill-25" fill="#00AAFF" points="97.5802041 7.2022449 96.5114286 7.2022449 96.5114286 4.90857143 97.5802041 4.90857143"></polygon>
                <polygon id="Fill-26" fill="#00AAFF" points="121.129388 8.11897959 116.924286 8.11897959 116.924286 7.05020408 121.129388 7.05020408"></polygon>
                <polygon id="Fill-27" fill="#00AAFF" points="83.0536735 12.5542857 81.984898 12.5542857 81.984898 7.58469388 83.0536735 7.58469388"></polygon>
                <polygon id="Fill-28" fill="#00AAFF" points="29.7304286 16.9113265 28.6508367 16.9113265 23.1587959 4.35826531 24.1377755 3.92989796 29.1745102 15.4419388 33.8571633 3.94234694 34.8469592 4.34561224"></polygon>
                <g id="Group">
                    <path d="M8.5,20 C8.5,20 17,16.8557895 17,10.5263158 L17,2.01060204 C14.9031562,2.01060204 8.5,0 8.5,0 C8.5,0 2.0941875,2.01060204 0,2.01060204 L0,10.5263158 C0,16.8073684 8.5,20 8.5,20 Z" id="Shape" fill="#00AAFF"></path>
                    <g id="Fill-1">
                        <use fill="black" fill-opacity="1" filter="url(#filter-4)" xlink:href="#path-3"></use>
                        <use fill="#FFFFFF" fill-rule="evenodd" xlink:href="#path-3"></use>
                    </g>
                </g>
            </g>
        </g>
    </g>
</svg>