<?xml version="1.0" encoding="UTF-8" standalone="no"?>
<svg width="23px" height="24px" viewBox="0 0 23 24" version="1.1" xmlns="http://www.w3.org/2000/svg" xmlns:xlink="http://www.w3.org/1999/xlink">
    <!-- Generator: Sketch 3.7.2 (28276) - http://www.bohemiancoding.com/sketch -->
    <title>icon_server_list_optimal</title>
    <desc>Created with Sketch.</desc>
    <defs></defs>
    <g id="Update" stroke="none" stroke-width="1" fill="none" fill-rule="evenodd">
        <g id="5_Servers_list" transform="translate(-24.000000, -64.000000)">
            <g id="item1" transform="translate(0.000000, 64.000000)">
                <g id="icon_server_list_optimal" transform="translate(24.000000, 0.000000)">
                    <g id="dart13">
                        <g id="Capa_1" transform="translate(0.000000, 0.437145)">
                            <path d="M17.4116775,7.8502677 L16.4233008,8.83864442 C16.8870255,9.69162707 17.1510439,10.6630795 17.1510439,11.6987944 C17.1510439,14.99564 14.4668565,17.6798275 11.1700109,17.6798275 C7.87316523,17.6798275 5.18897777,14.99564 5.18897777,11.6987944 C5.18897777,8.40194876 7.87316523,5.71776131 11.1700109,5.71776131 C12.2057755,5.71776131 13.177228,5.98177974 14.0301608,6.44550444 L15.0185375,5.45712772 C13.8981516,4.76323311 12.5814443,4.3638206 11.1699611,4.3638206 C7.12506321,4.3638206 3.83498728,7.65389652 3.83498728,11.6987944 C3.83498728,15.7436923 7.12511299,19.033818 11.1700109,19.033818 C15.2149087,19.033818 18.5049847,15.743742 18.5049847,11.6988939 C18.5049847,10.2874108 18.1055224,8.97070342 17.4116775,7.8502677 L17.4116775,7.8502677 Z" id="Shape" fill="#00AAFF"></path>
                            <path d="M19.2787717,5.98357172 L17.9864055,5.84006397 L11.619549,12.2066715 C11.3551822,12.4710384 10.92665,12.4710384 10.6622831,12.2066715 C10.3979162,11.9422548 10.3979162,11.5137724 10.6622831,11.2494055 L17.0288408,4.88279802 L16.8853331,3.59048152 L20.4756653,0.000149331696 L20.9542734,1.91497989 L22.8690541,2.39358798 L19.2787717,5.98357172 L19.2787717,5.98357172 Z" id="Path" fill="#8FCD3A"></path>
                            <path d="M19.7573798,6.9431772 C20.5392806,8.35127554 20.986081,9.97261954 20.986081,11.6988939 C20.986081,17.1112719 16.5823888,21.5150139 11.1700109,21.5150139 C5.75763287,21.5150139 1.35394071,17.1112719 1.35394071,11.6988442 C1.35394071,6.28646618 5.75763287,1.88277402 11.1700109,1.88277402 C12.8962853,1.88277402 14.5175795,2.32957446 15.9257276,3.11147522 L16.9141043,2.1230985 C15.2351681,1.1110776 13.268619,0.52888309 11.1700109,0.52888309 C5.00958063,0.52888309 0,5.53846372 0,11.6988442 C0,17.8592246 5.00958063,22.868855 11.1700109,22.868855 C17.3304411,22.868855 22.3400217,17.8592246 22.3400217,11.6988442 C22.3400217,9.60028585 21.7578272,7.63368697 20.7457068,5.95480048 L19.7573798,6.9431772 Z" id="Path" fill="#00AAFF"></path>
                            <path d="M14.6665627,10.5988171 L13.4784798,11.783565 C13.4344767,13.022371 12.4190709,14.0106979 11.1700606,14.0106979 C9.89397152,14.0106979 8.85820687,12.9749831 8.85820687,11.6988939 C8.85820687,10.4498836 9.84658359,9.43442811 11.0854393,9.39047481 L12.2735223,8.20577669 C11.9248826,8.09407658 11.5559337,8.03314925 11.1701104,8.03314925 C9.1493539,8.03314925 7.50431594,9.67818721 7.50431594,11.6989437 C7.50431594,13.7197002 9.1493539,15.364788 11.1701104,15.364788 C13.1908669,15.364788 14.8359049,13.7197002 14.8359049,11.6989437 C14.8358053,11.3163559 14.7782628,10.944072 14.6665627,10.5988171 L14.6665627,10.5988171 Z" id="Path" fill="#8FCD3A"></path>
                        </g>
                    </g>
                </g>
            </g>
        </g>
    </g>
</svg>