<?xml version="1.0" encoding="UTF-8" standalone="no"?>
<svg width="18px" height="18px" viewBox="0 0 18 18" version="1.1" xmlns="http://www.w3.org/2000/svg" xmlns:xlink="http://www.w3.org/1999/xlink">
    <!-- Generator: Sketch 3.7.2 (28276) - http://www.bohemiancoding.com/sketch -->
    <title>icon_preloader</title>
    <desc>Created with Sketch.</desc>
    <defs></defs>
    <g id="Update" stroke="none" stroke-width="1" fill="none" fill-rule="evenodd">
        <g id="8_Process" transform="translate(-120.000000, -95.000000)" stroke-width="0.3" stroke="#FFFFFF" fill="#FFFFFF">
            <g id="Switch_OFF" transform="translate(100.000000, 79.000000)">
                <g id="Group">
                    <g id="icon_preloader" transform="translate(21.000000, 17.000000)">
                        <path d="M7.96883843,11.168 C7.67944105,11.168 7.44482096,11.4026201 7.44482096,11.6920175 L7.44482096,15.4116332 C7.44482096,15.7010306 7.67944105,15.9356507 7.96883843,15.9356507 C8.25830568,15.9356507 8.4928559,15.7010306 8.4928559,15.4116332 L8.4928559,11.6920175 C8.4928559,11.4026201 8.25830568,11.168 7.96883843,11.168 L7.96883843,11.168 Z" id="Shape"></path>
                        <path d="M7.96883843,0 C7.67944105,0 7.44482096,0.234620087 7.44482096,0.524017467 L7.44482096,4.24272489 C7.44482096,4.53212227 7.67944105,4.76674236 7.96883843,4.76674236 C8.25830568,4.76674236 8.4928559,4.53212227 8.4928559,4.24272489 L8.4928559,0.524017467 C8.4928559,0.234620087 8.25830568,0 7.96883843,0 L7.96883843,0 Z" id="Shape"></path>
                        <path d="M4.7711441,7.96883843 C4.7711441,7.67944105 4.53659389,7.44482096 4.24712664,7.44482096 L0.524017467,7.44482096 C0.234550218,7.44482096 0,7.67944105 0,7.96883843 C0,8.25823581 0.234550218,8.4928559 0.524017467,8.4928559 L4.24712664,8.4928559 C4.53659389,8.4928559 4.7711441,8.25823581 4.7711441,7.96883843 L4.7711441,7.96883843 Z" id="Shape"></path>
                        <path d="M15.4117031,7.44482096 L11.6904803,7.44482096 C11.4010131,7.44482096 11.1664629,7.67944105 11.1664629,7.96883843 C11.1664629,8.25823581 11.4010131,8.4928559 11.6904803,8.4928559 L15.4117031,8.4928559 C15.7011004,8.4928559 15.9357205,8.25823581 15.9357205,7.96883843 C15.9357205,7.67944105 15.7011004,7.44482096 15.4117031,7.44482096 L15.4117031,7.44482096 Z" id="Shape"></path>
                        <path d="M4.96551965,10.2290306 L2.33439301,12.8609258 C2.12974672,13.0656419 2.12981659,13.3973799 2.33446288,13.6020262 C2.43682096,13.7043144 2.57089956,13.7554585 2.70497817,13.7554585 C2.83912664,13.7554585 2.97320524,13.7043144 3.07556332,13.6019563 L5.70668996,10.9700611 C5.91133624,10.765345 5.91126638,10.433607 5.70655022,10.2289607 C5.50183406,10.0243144 5.1700262,10.0243144 4.96551965,10.2290306 L4.96551965,10.2290306 Z" id="Shape"></path>
                        <path d="M4.96286463,5.7041048 C5.06515284,5.80646288 5.19930131,5.85760699 5.33337991,5.85760699 C5.46745852,5.85760699 5.60160699,5.80646288 5.70396507,5.7041048 C5.90861135,5.49945852 5.90861135,5.16765066 5.7038952,4.96307424 L3.07549345,2.33474236 C2.87084716,2.1300262 2.53910917,2.13009607 2.33446288,2.33474236 C2.12981659,2.53938865 2.12981659,2.87119651 2.33453275,3.07577293 L4.96286463,5.7041048 L4.96286463,5.7041048 Z" id="Shape"></path>
                        <path d="M10.9718079,10.2324541 C10.7670218,10.0278777 10.435214,10.0279476 10.2307773,10.2326638 C10.026131,10.4373799 10.0262707,10.7691878 10.2309869,10.9737642 L12.8609258,13.6020262 C12.9632838,13.7042445 13.0972926,13.7553886 13.2313712,13.7553886 C13.3654498,13.7553886 13.499738,13.7041747 13.6020262,13.6018166 C13.8066725,13.3971004 13.8065328,13.0652926 13.6018166,12.8607162 L10.9718079,10.2324541 L10.9718079,10.2324541 Z" id="Shape"></path>
                    </g>
                </g>
            </g>
        </g>
    </g>
</svg>