<?xml version="1.0" encoding="UTF-8" standalone="no"?>
<svg width="18px" height="18px" viewBox="0 0 18 18" version="1.1" xmlns="http://www.w3.org/2000/svg" xmlns:xlink="http://www.w3.org/1999/xlink">
    <!-- Generator: Sketch 3.8.3 (29802) - http://www.bohemiancoding.com/sketch -->
    <title>icon_settings</title>
    <desc>Created with Sketch.</desc>
    <defs></defs>
    <g id="Update" stroke="none" stroke-width="1" fill="none" fill-rule="evenodd">
        <g id="5_Servers_list" transform="translate(-258.000000, -16.000000)" fill="#00AAFF">
            <g id="icon_settings" transform="translate(258.000000, 16.000000)">
                <path d="M15.150375,10.110375 C14.7594375,10.1885625 14.439375,10.4675625 14.308875,10.8444375 C14.2363125,11.052 14.1519375,11.253375 14.0574375,11.4485625 C13.8825,11.808 13.9123125,12.232125 14.133375,12.5634375 L15.109875,14.0281875 L14.027625,15.1104375 L12.562875,14.1339375 C12.375,14.0085 12.1573125,13.9449375 11.9390625,13.9449375 C11.772,13.9449375 11.6038125,13.9820625 11.449125,14.056875 C11.253375,14.151375 11.0525625,14.236875 10.843875,14.3094375 C10.468125,14.4399375 10.189125,14.76 10.1109375,15.1509375 L9.765,16.875 L8.235,16.875 L7.8901875,15.150375 C7.812,14.7594375 7.533,14.439375 7.1566875,14.308875 C6.949125,14.2363125 6.7471875,14.1519375 6.552,14.0574375 C6.39675,13.9815 6.229125,13.944375 6.0615,13.944375 C5.8426875,13.944375 5.6255625,14.0079375 5.4376875,14.133375 L3.9729375,15.109875 L2.8906875,14.027625 L3.866625,12.562875 C4.0876875,12.231 4.116375,11.806875 3.9436875,11.449125 C3.8491875,11.253375 3.76425,11.0525625 3.6916875,10.843875 C3.5611875,10.468125 3.2405625,10.189125 2.8501875,10.1109375 L1.126125,9.765 L1.125,8.2344375 L2.849625,7.889625 C3.24,7.8114375 3.560625,7.5324375 3.691125,7.156125 C3.7636875,6.9485625 3.8475,6.746625 3.9425625,6.5514375 C4.1169375,6.1925625 4.0876875,5.7684375 3.8660625,5.437125 L2.8906875,3.9729375 L3.972375,2.8906875 L5.437125,3.866625 C5.625,3.9920625 5.8426875,4.055625 6.0609375,4.055625 C6.228,4.055625 6.395625,4.0185 6.550875,3.9436875 C6.7460625,3.8491875 6.9474375,3.76425 7.1555625,3.6916875 C7.531875,3.5611875 7.810875,3.2405625 7.8890625,2.8501875 L8.2344375,1.126125 L9.7644375,1.1255625 L10.10925,2.8501875 C10.1874375,3.2405625 10.4664375,3.5611875 10.8433125,3.6916875 C11.050875,3.76425 11.25225,3.8480625 11.4474375,3.943125 C11.60325,4.0185 11.7703125,4.055625 11.9385,4.055625 C12.1573125,4.055625 12.3744375,3.9920625 12.5623125,3.866625 L14.0270625,2.8906875 L15.1093125,3.9729375 L14.1328125,5.4376875 C13.91175,5.7695625 13.883625,6.193125 14.05575,6.5514375 C14.15025,6.746625 14.23575,6.948 14.3083125,7.156125 C14.4388125,7.5324375 14.758875,7.8114375 15.1498125,7.889625 L16.8733125,8.235 L16.875,9.765 L15.150375,10.110375 Z M17.0949375,7.1319375 L15.3714375,6.7865625 C15.2848125,6.537375 15.1824375,6.2955 15.069375,6.0615 L16.045875,4.59675 C16.3434375,4.1506875 16.284375,3.556125 15.90525,3.1775625 L14.823,2.0953125 C14.6053125,1.877625 14.317875,1.7656875 14.0265,1.7656875 C13.8110625,1.7656875 13.593375,1.8275625 13.4038125,1.9546875 L11.9390625,2.930625 C11.7039375,2.817 11.4620625,2.71575 11.212875,2.629125 L10.8675,0.9050625 C10.762875,0.3785625 10.3005,0.0005625 9.7644375,0.0005625 L8.2344375,0.0005625 C7.698375,0.0005625 7.2365625,0.379125 7.131375,0.9050625 L6.786,2.629125 C6.5368125,2.71575 6.2949375,2.8175625 6.0609375,2.930625 L4.59675,1.9546875 C4.4060625,1.8275625 4.1889375,1.7656875 3.9729375,1.7656875 C3.682125,1.7656875 3.3946875,1.877625 3.177,2.0953125 L2.0953125,3.1775625 C1.7161875,3.5566875 1.657125,4.1506875 1.9546875,4.59675 L2.930625,6.0615 C2.817,6.2960625 2.71575,6.5379375 2.629125,6.787125 L0.9045,7.1319375 C0.3785625,7.2365625 0,7.698375 0,8.2344375 L0,9.7644375 C0,10.3005 0.3785625,10.762875 0.9045,10.8675 L2.6285625,11.2134375 C2.7151875,11.462625 2.817,11.7045 2.9300625,11.9385 L1.9546875,13.40325 C1.657125,13.8493125 1.7161875,14.443875 2.0953125,14.8224375 L3.1775625,15.9046875 C3.39525,16.122375 3.6826875,16.2343125 3.9735,16.2343125 C4.1895,16.2343125 4.4071875,16.171875 4.59675,16.0453125 L6.0615,15.0688125 C6.2960625,15.183 6.5379375,15.28425 6.787125,15.370875 L7.1319375,17.094375 C7.237125,17.6214375 7.6989375,18 8.235,18 L9.765,18 C10.3010625,18 10.7634375,17.620875 10.8680625,17.0949375 L11.214,15.3714375 C11.4631875,15.2848125 11.7050625,15.1824375 11.9390625,15.069375 L13.4038125,16.045875 C13.5939375,16.1724375 13.811625,16.234875 14.0265,16.234875 C14.317875,16.234875 14.6053125,16.1229375 14.823,15.90525 L15.90525,14.823 C16.284375,14.443875 16.3434375,13.849875 16.045875,13.4038125 L15.069375,11.9390625 C15.1835625,11.7039375 15.2848125,11.4620625 15.3714375,11.212875 L17.0949375,10.8680625 C17.620875,10.7634375 18,10.3005 18,9.765 L18,8.235 C18,7.698375 17.620875,7.2365625 17.0949375,7.1319375 L17.0949375,7.1319375 Z" id="Fill-1"></path>
                <path d="M9,12.445875 C7.097625,12.445875 5.5546875,10.902375 5.5546875,9.0005625 C5.5546875,7.0981875 7.097625,5.55525 9,5.55525 C10.9018125,5.55525 12.4453125,7.0981875 12.4453125,9.0005625 C12.4453125,10.902375 10.9018125,12.445875 9,12.445875 M9,5.0625 C6.8259375,5.0625 5.0625,6.8259375 5.0625,9 C5.0625,11.174625 6.8259375,12.9375 9,12.9375 C11.1740625,12.9375 12.9375,11.1740625 12.9375,9 C12.9375,6.8259375 11.1740625,5.0625 9,5.0625" id="Fill-3"></path>
                <path d="M9,10.6880625 C8.0685,10.6880625 7.3125,9.9320625 7.3125,9.0005625 C7.3125,8.0690625 8.0685,7.3130625 9,7.3130625 C9.9315,7.3130625 10.6875,8.0690625 10.6875,9.0005625 C10.6875,9.9320625 9.9315,10.6880625 9,10.6880625 M9,6.75 C7.756875,6.75 6.75,7.756875 6.75,9 C6.75,10.2425625 7.756875,11.25 9,11.25 C10.2425625,11.25 11.25,10.2425625 11.25,9 C11.25,7.7574375 10.2425625,6.75 9,6.75" id="Fill-5"></path>
            </g>
        </g>
    </g>
</svg>