<?xml version="1.0" encoding="UTF-8" standalone="no"?>
<svg width="40px" height="40px" viewBox="0 0 40 40" version="1.1" xmlns="http://www.w3.org/2000/svg" xmlns:xlink="http://www.w3.org/1999/xlink">
    <!-- Generator: Sketch 3.8.1 (29687) - http://www.bohemiancoding.com/sketch -->
    <title>ball</title>
    <desc>Created with Sketch.</desc>
    <defs></defs>
    <g id="Update" stroke="none" stroke-width="1" fill="none" fill-rule="evenodd">
        <g id="Euro_Process-Copy" transform="translate(-155.000000, -84.000000)">
            <g id="Switch_OFF" transform="translate(100.000000, 79.000000)">
                <g id="Group">
                    <g id="ball" transform="translate(55.000000, 5.000000)">
                        <circle id="Oval" fill="#EBEBEB" cx="20" cy="20" r="20"></circle>
                        <path d="M20,2 C29.9,2 38,10.1 38,20 C38,29.9 29.9,38 20,38 C10.1,38 2,29.9 2,20 C2,10.1 10.1,2 20,2 L20,2 Z M20,0 C9,0 0,9 0,20 C0,31 9,40 20,40 C31,40 40,31 40,20 C40,9 31,0 20,0 L20,0 L20,0 Z M13.3,16.4 L5.4,13.8 L4.8,15.7 L12.7,18.3 L13.3,16.4 L13.3,16.4 Z M21,4 L19,4 L19,12 L21,12 L21,4 L21,4 Z M16.4,25.7 L14.7,24.6 L9.6,32.3 L11.3,33.4 L16.4,25.7 L16.4,25.7 Z M30.4,32.3 L25.3,24.6 L23.6,25.7 L28.7,33.4 L30.4,32.3 L30.4,32.3 Z M34.3,15.9 L33.7,14 L24.7,17 L25.3,18.9 L34.3,15.9 L34.3,15.9 Z" id="Shape" fill="#DADADA"></path>
                        <path d="M12,17 L20,11 L28,17 L25,26 L15,26 L12,17 L12,17 Z M26,0.9 C24.1,0.3 22.1,0 20,0 C17.9,0 15.9,0.3 14,0.9 L12.4,3.8 L20,6 L27.7,3.8 L26,0.9 L26,0.9 Z M32.9,15.4 L32.7,7.3 L35.1,7 C38.1,10.5 39.9,15 39.9,20 L37.9,22 L32.9,15.4 L32.9,15.4 Z M36.1,27.8 L36.9,30.7 C34.4,34.6 30.7,37.6 26.2,39.1 L23.9,37.7 L28.2,30.9 L36.1,27.8 L36.1,27.8 Z M7.1,15.4 L7.3,7.3 L4.8,7 C1.8,10.5 0,15 0,20 L2,22 L7.1,15.4 L7.1,15.4 Z M3.9,27.8 L3.1,30.7 C5.6,34.6 9.3,37.6 13.8,39.1 L16,37.5 L11.9,30.9 L3.9,27.8 L3.9,27.8 Z" id="Shape" fill="#3885B2"></path>
                    </g>
                </g>
            </g>
        </g>
    </g>
</svg>