<svg id="Layer_1" xmlns="http://www.w3.org/2000/svg" viewBox="0 0 16 16"><style>.st0{fill:#8ea1b3}</style><path class="st0" d="M13.9 6.1l-.4-.7v-.1c.9-2 .8-2.1.7-2.3L13 1.8s-.1-.1-.2-.1-.3 0-2 .8h-.1l-.7-.2v-.1c-.9-2-1-2-1.2-2H7.1C6.9.2 6.8.2 6 2.3v.1l-.7.2h-.1c-1.2-.5-1.9-.8-2.1-.8-.1 0-.2 0-.2.1L1.7 3.1c-.1.1-.2.2.7 2.2v.1l-.2.7h-.1C0 6.9 0 7 0 7.2v1.7c0 .2 0 .3 2.1 1.1h.1l.3.7v.1c-.9 2-.8 2.1-.7 2.3L3 14.2c.1 0 .1.1.2.1s.3 0 2-.8h.1l.7.2v.1c.8 2.1.9 2.1 1.1 2.1h1.7c.2 0 .3 0 1.1-2.1v-.1l.7-.3h.1c1.2.5 1.9.8 2.1.8.1 0 .2 0 .2-.1l1.2-1.2c.2-.2.2-.2-.7-2.2v-.1l.3-.7h.1C16 9.1 16 9 16 8.8V7.1c0-.2 0-.3-2.1-1zM8 10.7c-1.5 0-2.7-1.2-2.7-2.7 0-1.5 1.2-2.7 2.7-2.7 1.5 0 2.7 1.2 2.7 2.7 0 1.5-1.2 2.7-2.7 2.7z"/></svg>