<?xml version="1.0" encoding="UTF-8" standalone="no"?>
<svg width="20px" height="20px" viewBox="0 0 20 20" version="1.1" xmlns="http://www.w3.org/2000/svg" xmlns:xlink="http://www.w3.org/1999/xlink">
    <!-- Generator: Sketch 3.8.1 (29687) - http://www.bohemiancoding.com/sketch -->
    <title>icon_webrtc</title>
    <desc>Created with Sketch.</desc>
    <defs></defs>
    <g id="Update" stroke="none" stroke-width="1" fill="none" fill-rule="evenodd">
        <g id="6_Settings" transform="translate(-26.000000, -246.000000)">
            <g id="item2" transform="translate(0.000000, 244.000000)">
                <g id="icon_webrtc" transform="translate(26.000000, 2.000000)">
                    <path d="M19,4 L17,4 L17,13 L4,13 L4,15 C4,15.55 4.45,16 5,16 L16,16 L20,20 L20,5 C20,4.45 19.55,4 19,4 L19,4 Z" id="Shape" fill="#9AD24E"></path>
                    <path d="M15,10 L15,1 C15,0.45 14.55,0 14,0 L1,0 C0.45,0 0,0.45 0,1 L0,15 L4,11 L14,11 C14.55,11 15,10.55 15,10 L15,10 Z" id="Path" fill="#00AAFF"></path>
                </g>
            </g>
        </g>
    </g>
</svg>