<?xml version="1.0" encoding="UTF-8" standalone="no"?>
<svg width="16px" height="16px" viewBox="0 0 16 16" version="1.1" xmlns="http://www.w3.org/2000/svg" xmlns:xlink="http://www.w3.org/1999/xlink">
    <!-- Generator: Sketch 3.7.2 (28276) - http://www.bohemiancoding.com/sketch -->
    <title>icon_personal_ip</title>
    <desc>Created with Sketch.</desc>
    <defs>
        <circle id="path-1" cx="5" cy="5" r="5"></circle>
        <mask id="mask-2" maskContentUnits="userSpaceOnUse" maskUnits="objectBoundingBox" x="0" y="0" width="10" height="10" fill="white">
            <use xlink:href="#path-1"></use>
        </mask>
    </defs>
    <g id="Update" stroke="none" stroke-width="1" fill="none" fill-rule="evenodd">
        <g id="3_MainScreen" transform="translate(-23.000000, -425.000000)">
            <g id="Group-2" transform="translate(23.000000, 162.000000)">
                <g id="personal_IP" transform="translate(0.000000, 260.000000)">
                    <g id="icon_personal_ip" transform="translate(0.000000, 3.000000)">
                        <path d="M6,16 C7.29683876,16 12,10.948465 12,7.76470588 C12,4.58094674 9.3137085,2 6,2 C2.6862915,2 0,4.58094674 0,7.76470588 C0,10.948465 4.70316124,16 6,16 Z M6,11.4705882 C8.13024118,11.4705882 9.85714286,9.81140819 9.85714286,7.76470588 C9.85714286,5.71800357 8.13024118,4.05882353 6,4.05882353 C3.86975882,4.05882353 2.14285714,5.71800357 2.14285714,7.76470588 C2.14285714,9.81140819 3.86975882,11.4705882 6,11.4705882 Z" id="Combined-Shape" fill="#00AAFF"></path>
                        <g id="Group-4" transform="translate(6.000000, 0.000000)">
                            <use id="Oval-14" stroke="#00AAFF" mask="url(#mask-2)" fill="#FFFFFF" xlink:href="#path-1"></use>
                            <path d="M5,8.6 C3.75,8.6 2.645,7.96 2,6.99 C2.015,5.995 4,5.45 5,5.45 C5.995,5.45 7.985,5.995 8,6.99 C7.355,7.96 6.25,8.6 5,8.6 Z M5,1.5 C5.83,1.5 6.5,2.17 6.5,3 C6.5,3.83 5.83,4.5 5,4.5 C4.17,4.5 3.5,3.83 3.5,3 C3.5,2.17 4.17,1.5 5,1.5 Z" id="Combined-Shape" fill="#9AD24E"></path>
                        </g>
                    </g>
                </g>
            </g>
        </g>
    </g>
</svg>