<?xml version="1.0" encoding="UTF-8" standalone="no"?>
<svg width="28px" height="34px" viewBox="0 0 28 34" version="1.1" xmlns="http://www.w3.org/2000/svg" xmlns:xlink="http://www.w3.org/1999/xlink">
    <!-- Generator: Sketch 3.7.2 (28276) - http://www.bohemiancoding.com/sketch -->
    <title>icon_location</title>
    <desc>Created with Sketch.</desc>
    <defs></defs>
    <g id="Update" stroke="none" stroke-width="1" fill="none" fill-rule="evenodd">
        <g id="3_MainScreen" transform="translate(-227.000000, -200.000000)" fill="#00AAFF">
            <g id="Group-2" transform="translate(23.000000, 162.000000)">
                <g id="location" transform="translate(0.000000, 20.000000)">
                    <path d="M218,52 C221.025957,52 232,39.7319865 232,32 C232,24.2680135 225.731986,18 218,18 C210.268014,18 204,24.2680135 204,32 C204,39.7319865 214.974043,52 218,52 Z M218,41 C222.970563,41 227,36.9705627 227,32 C227,27.0294373 222.970563,23 218,23 C213.029437,23 209,27.0294373 209,32 C209,36.9705627 213.029437,41 218,41 Z" id="icon_location"></path>
                </g>
            </g>
        </g>
    </g>
</svg>