<?xml version="1.0" encoding="UTF-8" standalone="no"?>
<svg width="26px" height="26px" viewBox="0 0 26 26" version="1.1" xmlns="http://www.w3.org/2000/svg" xmlns:xlink="http://www.w3.org/1999/xlink">
    <!-- Generator: Sketch 3.8.1 (29687) - http://www.bohemiancoding.com/sketch -->
    <title>icon_love_it</title>
    <desc>Created with Sketch.</desc>
    <defs>
        <circle id="path-1" cx="13" cy="13" r="13"></circle>
        <filter x="-50%" y="-50%" width="200%" height="200%" filterUnits="objectBoundingBox" id="filter-2">
            <feGaussianBlur stdDeviation="1" in="SourceAlpha" result="shadowBlurInner1"></feGaussianBlur>
            <feOffset dx="0" dy="0" in="shadowBlurInner1" result="shadowOffsetInner1"></feOffset>
            <feComposite in="shadowOffsetInner1" in2="SourceAlpha" operator="arithmetic" k2="-1" k3="1" result="shadowInnerInner1"></feComposite>
            <feColorMatrix values="0 0 0 0 0   0 0 0 0 0   0 0 0 0 0  0 0 0 0.198539402 0" type="matrix" in="shadowInnerInner1"></feColorMatrix>
        </filter>
    </defs>
    <g id="Update" stroke="none" stroke-width="1" fill="none" fill-rule="evenodd">
        <g id="4_MainScreen_RateUs" transform="translate(-57.000000, -407.000000)">
            <g id="Group-4" transform="translate(0.000000, 330.000000)">
                <g id="icon_love_it" transform="translate(57.000000, 77.000000)">
                    <g id="Oval-172">
                        <use fill="#0092DB" fill-rule="evenodd" xlink:href="#path-1"></use>
                        <use fill="black" fill-opacity="1" filter="url(#filter-2)" xlink:href="#path-1"></use>
                    </g>
                    <path d="M19.5187188,12.7747947 C19.8395321,12.3920263 20,11.9393764 20,11.4167491 C20,10.9428059 19.8335252,10.5327107 19.5017097,10.186176 C19.1692199,9.83967328 18.7755279,9.66651769 18.3205418,9.66651769 L15.8969121,9.66651769 C15.9202038,9.58147224 15.9435569,9.5085579 15.9668487,9.4478066 C15.9899259,9.38705529 16.0223505,9.32014265 16.0630191,9.24722832 C16.1037184,9.17428205 16.1329863,9.11956437 16.1504245,9.08317105 C16.2553906,8.87668684 16.3357472,8.70643633 16.3912183,8.57286645 C16.4465975,8.43904119 16.5017316,8.25681919 16.5573253,8.02591314 C16.6128271,7.79513479 16.6404094,7.56413297 16.6404094,7.33322692 C16.6404094,7.18746209 16.6387239,7.06886456 16.6359656,6.97778548 C16.633238,6.88664256 16.6183742,6.74988029 16.5923549,6.56756251 C16.5659371,6.38534051 16.5308769,6.23341436 16.4872355,6.11194367 C16.4434102,5.99044105 16.3733511,5.85361493 16.2772726,5.70181647 C16.1809796,5.5497307 16.0643676,5.42685535 15.9271607,5.3326158 C15.7899845,5.2384401 15.6150512,5.15946021 15.4021462,5.09570805 C15.1890266,5.03189204 14.9485392,5 14.6800405,5 C14.5283989,5 14.3972602,5.05775045 14.2863178,5.17321944 C14.1696752,5.29472206 14.0703481,5.44661629 13.9887657,5.62883829 C13.9070606,5.81115606 13.8501491,5.96914777 13.818031,6.10287726 C13.7859435,6.23654291 13.7494429,6.42192538 13.7087742,6.65883313 C13.656092,6.91416102 13.6168944,7.09785152 13.5904766,7.2102558 C13.5642734,7.32266009 13.5130929,7.46998919 13.4373334,7.65224311 C13.3614206,7.83462473 13.2711038,7.98035764 13.1660763,8.089793 C12.9736129,8.2902755 12.6790641,8.65487912 12.2823075,9.18347616 C11.9964012,9.57231006 11.7018524,9.93991453 11.3985386,10.2862896 C11.0951635,10.6327285 10.873524,10.8119496 10.733559,10.8241126 C10.5878322,10.8362437 10.4623939,10.8985274 10.3573665,11.0109955 C10.252339,11.1233998 10.1998406,11.255597 10.1998406,11.4074593 L10.1998406,17.2498643 C10.1998406,17.407856 10.2552198,17.5429902 10.3660702,17.6553945 C10.4768593,17.7679264 10.6081206,17.8271454 10.7597928,17.8332429 C10.9639328,17.8393404 11.4247724,17.9728783 12.1423118,18.2343994 C12.5914136,18.3921358 12.9428126,18.5123295 13.1965702,18.5942464 C13.4502664,18.6761633 13.8048834,18.7643373 14.2595323,18.8586407 C14.7146103,18.9527845 15.1345362,19 15.5194324,19 L15.6682238,19 L16.3332647,19 L16.6481938,19 C17.4242077,18.9878689 17.9985333,18.7508015 18.3719982,18.2891171 C18.710219,17.8697958 18.8530649,17.3198736 18.8007504,16.6393185 C19.0282128,16.4145099 19.1858306,16.1290458 19.2732053,15.7826069 C19.3722259,15.4121612 19.3722259,15.0566559 19.2732053,14.7164422 C19.5414895,14.345773 19.6669279,13.9295484 19.6493058,13.4677363 C19.6500414,13.2730958 19.6064,13.0422536 19.5187188,12.7747947 Z M9.0800282,10.8334025 L6.56010543,10.8334025 C6.40834125,10.8334025 6.27707995,10.891153 6.16626023,11.0066219 C6.05544051,11.1220271 6,11.2587574 6,11.4167491 L6,17.2502793 C6,17.4080476 6.05544051,17.5448418 6.16629088,17.6604065 C6.27720254,17.775684 6.40846384,17.8334663 6.56013607,17.8334663 L9.0800282,17.8334663 C9.23166978,17.8334663 9.36286979,17.775684 9.4737508,17.6604065 C9.58457053,17.5448418 9.63998039,17.4080795 9.63998039,17.2502793 L9.63998039,11.4167491 C9.63998039,11.2587574 9.58453988,11.122059 9.4737508,11.0066219 C9.36290044,10.891121 9.23170043,10.8334025 9.0800282,10.8334025 Z M8.07373242,16.4981188 C7.9629127,16.6105231 7.83168204,16.6667092 7.68000981,16.6667092 C7.52248399,16.6667092 7.38975163,16.6105231 7.28190467,16.4981188 C7.17399642,16.3857145 7.12005762,16.2475156 7.12005762,16.0834264 C7.12005762,15.9254667 7.17396577,15.7887044 7.28190467,15.6732993 C7.38978227,15.5578303 7.52248399,15.500016 7.68000981,15.500016 C7.83168204,15.500016 7.9629127,15.5578303 8.07373242,15.6732993 C8.18458278,15.7886725 8.24002329,15.9254347 8.24002329,16.0834264 C8.24002329,16.2475156 8.18470537,16.3856826 8.07373242,16.4981188 L8.07373242,16.4981188 Z" id="Shape" fill="#E0F1FF" transform="translate(13.000000, 12.000000) scale(-1, 1) translate(-13.000000, -12.000000) "></path>
                </g>
            </g>
        </g>
    </g>
</svg>