<?xml version="1.0" encoding="UTF-8" standalone="no"?>
<svg width="21px" height="21px" viewBox="0 0 21 21" version="1.1" xmlns="http://www.w3.org/2000/svg" xmlns:xlink="http://www.w3.org/1999/xlink">
    <!-- Generator: Sketch 3.8.1 (29687) - http://www.bohemiancoding.com/sketch -->
    <title>icon_rate_us</title>
    <desc>Created with Sketch.</desc>
    <defs></defs>
    <g id="Update" stroke="none" stroke-width="1" fill="none" fill-rule="evenodd">
        <g id="6_Settings" transform="translate(-26.000000, -358.000000)">
            <g id="item4" transform="translate(0.000000, 356.000000)">
                <g id="icon_rate_us" transform="translate(26.000000, 2.000000)">
                    <path d="M19.9589388,7.09637872 C19.8662041,6.82209149 19.6163265,6.62994894 19.3250612,6.60844255 L13.5189796,6.17920426 C13.2493061,6.15891064 13.0138367,5.99288298 12.9074694,5.74737872 L10.601551,0.452119149 C10.4857143,0.187129787 10.2206939,0.015806383 9.92873469,0.019 C9.63742857,0.0216680851 9.37571429,0.196912766 9.26510204,0.464529787 L7.05873469,5.80134681 C6.95681633,6.04895319 6.72387755,6.21958936 6.45497959,6.24424894 L0.657428571,6.77968511 C0.366938776,6.80636596 0.120857143,7.00311702 0.0333469388,7.27865745 C-0.0540816327,7.5542383 0.0340408163,7.85524681 0.256244898,8.04205319 L4.69889796,11.769934 C4.90485714,11.9432787 4.99681633,12.214817 4.93771429,12.4754404 L3.6604898,18.1019872 C3.59661224,18.3840766 3.70906122,18.6765149 3.94714286,18.8445638 C4.18526531,19.011966 4.50085714,19.0224362 4.7495102,18.8699106 L9.70114286,15.8364191 C9.93069388,15.6958596 10.2201224,15.6931106 10.4528571,15.8299915 L15.460449,18.7716362 C15.7110612,18.918866 16.0273061,18.9032617 16.2614286,18.7312915 C16.4956327,18.5593213 16.6035102,18.2641745 16.5337143,17.9835809 L15.1525306,12.3816128 C15.0880816,12.1216766 15.1748571,11.8480766 15.3774694,11.6717 L19.7498367,7.86365532 C19.9694286,7.67264468 20.0516735,7.37058511 19.9589388,7.09637872 Z" id="Shape" fill="#00AAFF"></path>
                    <circle id="Oval-29" stroke="#FFFFFF" fill="#8FCD3A" cx="15" cy="15" r="5"></circle>
                    <polygon id="+" fill="#FFFFFF" points="15.4978814 15.2822266 17.8343072 15.2822266 17.8343072 14.4873047 15.4978814 14.4873047 15.4978814 12.1508789 14.7029596 12.1508789 14.7029596 14.4873047 12.3665338 14.4873047 12.3665338 15.2822266 14.7029596 15.2822266 14.7029596 17.6186523 15.4978814 17.6186523"></polygon>
                </g>
            </g>
        </g>
    </g>
</svg>