<?xml version="1.0" encoding="UTF-8" standalone="no"?>
<svg width="16px" height="14px" viewBox="0 0 16 14" version="1.1" xmlns="http://www.w3.org/2000/svg" xmlns:xlink="http://www.w3.org/1999/xlink">
    <!-- Generator: Sketch 3.7.2 (28276) - http://www.bohemiancoding.com/sketch -->
    <title>icon_expired</title>
    <desc>Created with Sketch.</desc>
    <defs></defs>
    <g id="Update" stroke="none" stroke-width="1" fill="none" fill-rule="evenodd">
        <g id="6_Expired" transform="translate(-164.000000, -97.000000)" fill="#FFFFFF">
            <g id="Switch_OFF" transform="translate(100.000000, 79.000000)">
                <g id="Group">
                    <path d="M79.8637794,30.4960726 L72.8637741,18.4960904 C72.6845865,18.1889675 72.3557112,18 71.9999922,18 C71.6442732,18 71.3154292,18.1889675 71.1362103,18.4960904 L64.136205,30.4960726 C63.9557986,30.805383 63.9545486,31.1874742 64.1327987,31.4980346 C64.3112676,31.808595 64.6418304,32 64.9999869,32 L79.0000287,32 C79.3581853,32 79.688748,31.808595 79.8672169,31.4980346 C80.0454358,31.1874742 80.044217,30.805383 79.8637794,30.4960726 L79.8637794,30.4960726 Z M71.9999922,29.9998884 C71.4482418,29.9998884 70.9999914,29.5521414 70.9999914,28.9998951 C70.9999914,28.4476488 71.4482418,27.9999018 71.9999922,27.9999018 C72.5527426,27.9999018 72.9999929,28.4476488 72.9999929,28.9998951 C72.9999929,29.5521101 72.5527426,29.9998884 71.9999922,29.9998884 L71.9999922,29.9998884 Z M72.9999929,25.9999777 C72.9999929,26.552224 72.5522426,26.999971 71.9999922,26.999971 C71.4477418,26.999971 70.9999914,26.552224 70.9999914,25.9999777 L70.9999914,22.9999978 C70.9999914,22.4477515 71.4477418,22.0000045 71.9999922,22.0000045 C72.5522426,22.0000045 72.9999929,22.4477515 72.9999929,22.9999978 L72.9999929,25.9999777 L72.9999929,25.9999777 Z" id="icon_expired"></path>
                </g>
            </g>
        </g>
    </g>
</svg>