<?xml version="1.0" encoding="UTF-8" standalone="no"?>
<svg width="16px" height="22px" viewBox="0 0 16 22" version="1.1" xmlns="http://www.w3.org/2000/svg" xmlns:xlink="http://www.w3.org/1999/xlink">
    <!-- Generator: Sketch 3.7.2 (28276) - http://www.bohemiancoding.com/sketch -->
    <title>icon_auto_connect</title>
    <desc>Created with Sketch.</desc>
    <defs></defs>
    <g id="Update" stroke="none" stroke-width="1" fill="none" fill-rule="evenodd">
        <g id="5_Settings" transform="translate(-28.000000, -200.000000)">
            <g id="icon_auto_connect" transform="translate(28.000000, 200.000000)">
                <path d="M13.63,8.37 L9.63,12.37 L12.63,12.37 C12.63,15.68 9.94,18.37 6.63,18.37 C5.62,18.37 4.66,18.12 3.83,17.67 L2.37,19.13 C3.6,19.91 5.06,20.37 6.63,20.37 C11.05,20.37 14.63,16.79 14.63,12.37 L17.63,12.37 L13.63,8.37 L13.63,8.37 Z" id="Shape" fill="#00AAFF" transform="translate(10.000000, 14.370000) scale(-1, 1) rotate(-270.000000) translate(-10.000000, -14.370000) "></path>
                <path d="M3.37,9.63 C3.37,6.32 6.06,3.63 9.37,3.63 C10.38,3.63 11.34,3.88 12.17,4.33 L13.63,2.87 C12.4,2.09 10.94,1.63 9.37,1.63 C4.95,1.63 1.37,5.21 1.37,9.63 L-1.63,9.63 L2.37,13.63 L6.37,9.63 L3.37,9.63 L3.37,9.63 Z" id="Path" fill="#9AD24E" transform="translate(6.000000, 7.630000) scale(-1, 1) rotate(-270.000000) translate(-6.000000, -7.630000) "></path>
            </g>
        </g>
    </g>
</svg>