<?xml version="1.0" encoding="UTF-8" standalone="no"?>
<svg width="16px" height="22px" viewBox="0 0 16 22" version="1.1" xmlns="http://www.w3.org/2000/svg" xmlns:xlink="http://www.w3.org/1999/xlink">
    <!-- Generator: Sketch 3.7.2 (28276) - http://www.bohemiancoding.com/sketch -->
    <title>icon_change_password</title>
    <desc>Created with Sketch.</desc>
    <defs>
        <rect id="path-1" x="2" y="0" width="12" height="15" rx="18"></rect>
        <mask id="mask-2" maskContentUnits="userSpaceOnUse" maskUnits="objectBoundingBox" x="0" y="0" width="12" height="15" fill="white">
            <use xlink:href="#path-1"></use>
        </mask>
    </defs>
    <g id="Update" stroke="none" stroke-width="1" fill="none" fill-rule="evenodd">
        <g id="5_Settings" transform="translate(-28.000000, -254.000000)">
            <g id="item2" transform="translate(0.000000, 254.000000)">
                <g id="icon_change_password" transform="translate(28.000000, 0.000000)">
                    <use id="Rectangle-27" stroke="#9AD24E" mask="url(#mask-2)" stroke-width="4" xlink:href="#path-1"></use>
                    <path d="M0,11.992017 C0,10.8918564 0.869549985,9.81320349 1.96347201,9.60874003 C1.96347201,9.60874003 4.05464554,9.03118896 8,9.03118896 C11.9453545,9.03118896 14.0525691,9.61152974 14.0525691,9.61152974 C15.1281055,9.82607594 16,10.9001762 16,11.992017 L16,19.007983 C16,20.1081436 15.1334042,21.1975678 14.0366925,21.4125117 C14.0366925,21.4125117 12.0941868,22 8,22 C3.90581322,22 1.94737371,21.4096236 1.94737371,21.4096236 C0.871868907,21.1833947 0,20.0998238 0,19.007983 L0,11.992017 Z" id="Rectangle-26-Copy" fill="#00AAFF"></path>
                    <path d="M6,13.7494277 C6,12.782711 6.89583859,12 7.99949559,12 C9.10416141,12 10,12.782711 10,13.7494277 C10,14.3902437 9.58638083,14.9276137 8.99924338,15.2315436 L8.99924338,18.1243701 C8.99924338,18.6086439 8.55233291,18.9995417 7.99949559,18.9995417 C7.44665826,18.9995417 6.99974779,18.6086439 6.99974779,18.1243701 L6.99974779,15.2315436 C6.41361917,14.9276137 6,14.3902437 6,13.7494277" id="Path-Copy" fill="#FFFFFF"></path>
                </g>
            </g>
        </g>
    </g>
</svg>