<?xml version="1.0" encoding="UTF-8" standalone="no"?>
<svg width="74px" height="74px" viewBox="0 0 74 74" version="1.1" xmlns="http://www.w3.org/2000/svg" xmlns:xlink="http://www.w3.org/1999/xlink">
    <!-- Generator: Sketch 3.7.2 (28276) - http://www.bohemiancoding.com/sketch -->
    <title>img_user</title>
    <desc>Created with Sketch.</desc>
    <defs></defs>
    <g id="Update" stroke="none" stroke-width="1" fill="none" fill-rule="evenodd">
        <g id="5_Settings" transform="translate(-113.000000, -61.000000)">
            <g id="img_user" transform="translate(114.000000, 62.000000)">
                <path d="M36,72 C55.882251,72 72,55.882251 72,36 C72,16.117749 55.882251,0 36,0 C16.117749,0 0,16.117749 0,36 C0,55.882251 16.117749,72 36,72 Z" id="Oval-12" stroke="#9AD24E" stroke-linecap="round" stroke-dasharray="4,4"></path>
                <g id="Page-1" transform="translate(12.000000, 12.000000)" fill="#00AAFF">
                    <path d="M23.9948,41.7254 C19.6208,41.7254 15.6148,40.1334 12.5248,37.4954 C11.7728,36.8534 11.3388,35.9134 11.3388,34.9254 C11.3388,30.4794 14.9368,26.9214 19.3828,26.9214 L28.6188,26.9214 C33.0668,26.9214 36.6508,30.4794 36.6508,34.9254 C36.6508,35.9134 36.2188,36.8534 35.4648,37.4954 C32.3768,40.1334 28.3688,41.7254 23.9948,41.7254 M24.0008,7.1774 C28.3848,7.1774 31.9388,10.7334 31.9388,15.1154 C31.9388,19.5014 28.3848,23.0554 24.0008,23.0554 C19.6168,23.0554 16.0628,19.5014 16.0628,15.1154 C16.0628,10.7334 19.6168,7.1774 24.0008,7.1774 M24.0008,0.0014 C10.7468,0.0014 0.0008,10.7474 0.0008,24.0014 C0.0008,37.2554 10.7448,47.9994 24.0008,47.9994 C37.2548,47.9994 48.0008,37.2554 48.0008,24.0014 C48.0008,10.7474 37.2548,0.0014 24.0008,0.0014" id="Fill-1"></path>
                </g>
            </g>
        </g>
    </g>
</svg>