<?xml version="1.0" encoding="UTF-8" standalone="no"?>
<svg width="250px" height="177px" viewBox="0 0 250 177" version="1.1" xmlns="http://www.w3.org/2000/svg" xmlns:xlink="http://www.w3.org/1999/xlink">
    <!-- Generator: Sketch 3.8.1 (29687) - http://www.bohemiancoding.com/sketch -->
    <title>infographic</title>
    <desc>Created with Sketch.</desc>
    <defs>
        <circle id="path-1" cx="35" cy="35" r="35"></circle>
        <circle id="path-3" cx="35" cy="35" r="35"></circle>
        <circle id="path-5" cx="35" cy="35" r="35"></circle>
        <path d="M62.5919046,46.214789 C68.1698054,43.4261081 72,37.660349 72,31 C72,21.6111593 64.3888407,14 55,14 C54.2411891,14 53.49399,14.0497157 52.7614822,14.1460677 C51.4041163,6.11601715 44.4162943,0 36,0 C27.5837057,0 20.5958837,6.11601715 19.2385178,14.1460677 C18.50601,14.0497157 17.7588109,14 17,14 C7.61115925,14 0,21.6111593 0,31 C0,37.660349 3.83019458,43.4261081 9.40809535,46.214789 C8.50233524,48.2932591 8,50.5879662 8,53 C8,62.3888407 15.6111593,70 25,70 C29.1950051,70 33.0351192,68.480531 36,65.9619352 C38.9648808,68.480531 42.8049949,70 47,70 C56.3888407,70 64,62.3888407 64,53 C64,50.5879662 63.4976648,48.2932591 62.5919046,46.214789 Z" id="path-7"></path>
        <mask id="mask-8" maskContentUnits="userSpaceOnUse" maskUnits="objectBoundingBox" x="-3" y="-3" width="78" height="76">
            <rect x="-3" y="-3" width="78" height="76" fill="white"></rect>
            <use xlink:href="#path-7" fill="black"></use>
        </mask>
        <path d="M62.5919046,46.214789 C68.1698054,43.4261081 72,37.660349 72,31 C72,21.6111593 64.3888407,14 55,14 C54.2411891,14 53.49399,14.0497157 52.7614822,14.1460677 C51.4041163,6.11601715 44.4162943,0 36,0 C27.5837057,0 20.5958837,6.11601715 19.2385178,14.1460677 C18.50601,14.0497157 17.7588109,14 17,14 C7.61115925,14 0,21.6111593 0,31 C0,37.660349 3.83019458,43.4261081 9.40809535,46.214789 C8.50233524,48.2932591 8,50.5879662 8,53 C8,62.3888407 15.6111593,70 25,70 C29.1950051,70 33.0351192,68.480531 36,65.9619352 C38.9648808,68.480531 42.8049949,70 47,70 C56.3888407,70 64,62.3888407 64,53 C64,50.5879662 63.4976648,48.2932591 62.5919046,46.214789 Z" id="path-9"></path>
        <mask id="mask-10" maskContentUnits="userSpaceOnUse" maskUnits="objectBoundingBox" x="-2" y="-2" width="76" height="74">
            <rect x="-2" y="-2" width="76" height="74" fill="white"></rect>
            <use xlink:href="#path-9" fill="black"></use>
        </mask>
        <circle id="path-11" cx="1.77999878" cy="2.09999847" r="1.5"></circle>
        <mask id="mask-12" maskContentUnits="userSpaceOnUse" maskUnits="objectBoundingBox" x="-1" y="-1" width="5" height="5">
            <rect x="-0.720001221" y="-0.400001526" width="5" height="5" fill="white"></rect>
            <use xlink:href="#path-11" fill="black"></use>
        </mask>
        <polygon id="path-13" points="76.316772 54.1793271 78.316772 57.1793271 74.316772 57.1793271"></polygon>
        <mask id="mask-14" maskContentUnits="userSpaceOnUse" maskUnits="objectBoundingBox" x="-1" y="-1" width="6" height="5">
            <rect x="73.316772" y="53.1793271" width="6" height="5" fill="white"></rect>
            <use xlink:href="#path-13" fill="black"></use>
        </mask>
        <polygon id="path-15" points="3 4 3 0 0 2"></polygon>
        <mask id="mask-16" maskContentUnits="userSpaceOnUse" maskUnits="objectBoundingBox" x="-1" y="-1" width="5" height="6">
            <rect x="-1" y="-1" width="5" height="6" fill="white"></rect>
            <use xlink:href="#path-15" fill="black"></use>
        </mask>
        <circle id="path-17" cx="76" cy="56.5" r="1.5"></circle>
        <mask id="mask-18" maskContentUnits="userSpaceOnUse" maskUnits="objectBoundingBox" x="-1" y="-1" width="5" height="5">
            <rect x="73.5" y="54" width="5" height="5" fill="white"></rect>
            <use xlink:href="#path-17" fill="black"></use>
        </mask>
        <polygon id="path-19" points="3.5 23.5 3.5 19.5 0.5 21.5"></polygon>
        <mask id="mask-20" maskContentUnits="userSpaceOnUse" maskUnits="objectBoundingBox" x="-1" y="-1" width="5" height="6">
            <rect x="-0.5" y="18.5" width="5" height="6" fill="white"></rect>
            <use xlink:href="#path-19" fill="black"></use>
        </mask>
        <circle id="path-21" cx="2" cy="2" r="1.5"></circle>
        <mask id="mask-22" maskContentUnits="userSpaceOnUse" maskUnits="objectBoundingBox" x="-1" y="-1" width="5" height="5">
            <rect x="-0.5" y="-0.5" width="5" height="5" fill="white"></rect>
            <use xlink:href="#path-21" fill="black"></use>
        </mask>
        <polygon id="path-23" points="3.5 23.5 3.5 19.5 0.5 21.5"></polygon>
        <mask id="mask-24" maskContentUnits="userSpaceOnUse" maskUnits="objectBoundingBox" x="-1" y="-1" width="5" height="6">
            <rect x="-0.5" y="18.5" width="5" height="6" fill="white"></rect>
            <use xlink:href="#path-23" fill="black"></use>
        </mask>
        <circle id="path-25" cx="2" cy="2" r="1.5"></circle>
        <mask id="mask-26" maskContentUnits="userSpaceOnUse" maskUnits="objectBoundingBox" x="-1" y="-1" width="5" height="5">
            <rect x="-0.5" y="-0.5" width="5" height="5" fill="white"></rect>
            <use xlink:href="#path-25" fill="black"></use>
        </mask>
    </defs>
    <g id="Update" stroke="none" stroke-width="1" fill="none" fill-rule="evenodd">
        <g id="6_web_rtc" transform="translate(-25.000000, -69.000000)">
            <g id="infographic" transform="translate(25.000000, 69.000000)">
                <g id="icon">
                    <mask id="mask-2" fill="white">
                        <use xlink:href="#path-1"></use>
                    </mask>
                    <use id="Mask" fill="#E6F7FF" xlink:href="#path-1"></use>
                    <g mask="url(#mask-2)" id="Слой_1">
                        <g transform="translate(14.000000, 20.000000)">
                            <g>
                                <path d="M37,22 C37,22.553 36.553,24 36,24 L6,24 C5.448,24 5,22.553 5,22 L5,1 C5,0.447 5.448,0 6,0 L36,0 C36.553,0 37,0.447 37,1 L37,22 L37,22 Z" id="Shape" fill="#455A64"></path>
                                <rect id="Rectangle-path" fill="#BBDEFB" x="7" y="2" width="28" height="18"></rect>
                                <g id="Group" transform="translate(0.000000, 22.000000)" fill="#CFD8DC">
                                    <rect id="Rectangle-path" x="0" y="6" width="42" height="2"></rect>
                                    <polygon id="Shape" points="37 0 5 0 0 6 42 6"></polygon>
                                </g>
                                <polygon id="Shape" fill="#546E7A" points="7 23 35 23 37 26 5 26"></polygon>
                                <polygon id="Shape" fill="#90A4AE" points="25 26 17 26 16 28 26 28"></polygon>
                            </g>
                        </g>
                    </g>
                </g>
                <g id="icon" transform="translate(90.000000, 0.000000)">
                    <mask id="mask-4" fill="white">
                        <use xlink:href="#path-3"></use>
                    </mask>
                    <use id="Mask" fill="#E6F7FF" xlink:href="#path-3"></use>
                    <g mask="url(#mask-4)" id="Слой_1">
                        <g transform="translate(2.000000, 17.000000)">
                            <g>
                                <rect id="Rectangle-path" fill="#455A64" x="15" y="0" width="36" height="26"></rect>
                                <rect id="Rectangle-path" fill="#BBDEFB" x="17" y="2" width="32" height="21"></rect>
                                <path d="M25.3837891,14.878418 L25.4804688,15.3081055 L25.5126953,15.3081055 L25.6040039,14.8945312 L27.3066406,9.1796875 L28.9609375,9.1796875 L26.3022461,17 L24.690918,17 L22.0375977,9.1796875 L23.6918945,9.1796875 L25.3837891,14.878418 Z M31.2866211,14.1640625 L31.2866211,17 L29.7182617,17 L29.7182617,9.1796875 L32.7099609,9.1796875 C33.6087285,9.1796875 34.3159154,9.40885187 34.831543,9.8671875 C35.3471705,10.3255231 35.6049805,10.92887 35.6049805,11.6772461 C35.6049805,12.4256222 35.3471705,13.0271787 34.831543,13.4819336 C34.3159154,13.9366885 33.6087285,14.1640625 32.7099609,14.1640625 L31.2866211,14.1640625 Z M31.2866211,12.9555664 L32.7099609,12.9555664 C33.1468121,12.9555664 33.4780262,12.8365084 33.7036133,12.5983887 C33.9292003,12.360269 34.0419922,12.0568052 34.0419922,11.6879883 C34.0419922,11.3120098 33.9300955,11.0013847 33.7062988,10.7561035 C33.4825021,10.5108223 33.1503928,10.3881836 32.7099609,10.3881836 L31.2866211,10.3881836 L31.2866211,12.9555664 Z M43.0493164,17 L41.480957,17 L38.328125,11.7255859 L38.2958984,11.730957 L38.2958984,17 L36.7275391,17 L36.7275391,9.1796875 L38.2958984,9.1796875 L41.4487305,14.4487305 L41.480957,14.4433594 L41.480957,9.1796875 L43.0493164,9.1796875 L43.0493164,17 Z" id="VPN" fill="#455A64"></path>
                                <g id="Group" transform="translate(0.000000, 26.000000)" fill="#CFD8DC">
                                    <rect id="Rectangle-path" x="32" y="0" width="2" height="5"></rect>
                                    <rect id="Rectangle-path" x="0" y="6" width="66" height="2"></rect>
                                </g>
                                <path d="M42,34 C42,35.104 41.104,36 40,36 L26,36 C24.896,36 24,35.104 24,34 L24,32 C24,30.896 24.896,30 26,30 L40,30 C41.104,30 42,30.896 42,32 L42,34 L42,34 Z" id="Shape" fill="#90A4AE"></path>
                            </g>
                        </g>
                    </g>
                </g>
                <g id="icon" transform="translate(180.000000, 0.000000)">
                    <mask id="mask-6" fill="white">
                        <use xlink:href="#path-5"></use>
                    </mask>
                    <use id="Mask" fill="#E6F7FF" xlink:href="#path-5"></use>
                    <g id="Group-2" mask="url(#mask-6)">
                        <g transform="translate(14.000000, 14.000000)">
                            <path d="M42.0340909,21.9772727 C42.0340909,33.674599 32.5039367,42.9886364 21.0227273,42.9886364 C9.5425184,42.9886364 0.0113636364,33.674599 0.0113636364,21.9772727 C0.0113636364,10.2799464 9.32540097,0.965909091 21.0227273,0.965909091 C32.7200536,0.965909091 42.0340909,10.2799464 42.0340909,21.9772727" id="Shape" fill="#2196F3" transform="translate(21.022727, 21.977273) rotate(-270.000000) translate(-21.022727, -21.977273) "></path>
                            <g id="Group" stroke-width="1" fill="none" transform="translate(1.954545, 5.979978)">
                                <path d="M20.2750602,24.7393799 C19.8261031,24.5762917 18.5272274,23.0674756 18.3792416,22.9304015 C18.2312557,22.7933274 17.5673192,22.6122294 17.2593487,22.6712614 C16.9513782,22.7302933 15.510516,23.6317808 15.1055548,23.7048203 C14.7005935,23.7778598 14.3516269,23.441678 14.1586454,22.9304015 C13.9656638,22.419125 13.6316958,20.3470043 13.90067,19.8267229 C14.1696443,19.3064416 17.0063729,17.3273712 17.6033158,17.3273712 C18.2002587,17.3273712 18.6242181,19.1053328 19.2401592,19.2223961 C19.8561003,19.3394594 19.5821265,17.6485449 20.360052,17.6725579 C21.1369777,17.6965709 21.8229121,20.2569556 21.8229121,20.2569556 C21.8229121,20.2569556 22.670831,21.5466531 22.5988378,21.9828891 C22.5268447,22.419125 21.6339302,24.2461131 21.3929532,24.4812403 C21.1539761,24.7163674 20.7250171,24.9024681 20.2750602,24.7393799 L20.2750602,24.7393799 Z" id="Shape" fill="#CDDC39"></path>
                                <path d="M26.5564592,26.019072 C26.2404894,26.019072 25.9295192,25.8709919 25.7365376,25.5918409 C25.4205679,25.1405969 25.5285575,24.5212619 25.9765147,24.2020893 C25.9015219,24.11104 25.8105306,24.0119865 25.7285384,23.9319432 C25.3305765,23.5497365 25.314578,22.9173945 25.6955416,22.5181786 C26.0765051,22.1209637 26.7084447,22.1039545 27.1074065,22.4821591 C27.5863607,22.9374053 28.1463071,23.6277787 28.0993116,24.3331602 C28.0463167,25.1365947 27.342384,25.6878929 27.1274046,25.837974 C26.9524213,25.96004 26.7534404,26.019072 26.5564592,26.019072 L26.5564592,26.019072 Z" id="Shape" fill="#CDDC39"></path>
                                <path d="M23.3137694,29.1947895 C23.0517945,29.1947895 22.7908195,29.0917338 22.5948382,28.8886239 C22.210875,28.4914091 22.2218739,27.8580666 22.6198358,27.4738588 L24.5056554,25.6538745 C24.9026174,25.2686661 25.5355569,25.2806726 25.9195201,25.678888 C26.3034834,26.0761028 26.2914846,26.7094453 25.8945225,27.0936531 L24.008703,28.9136374 C23.8137216,29.1017392 23.5637455,29.1947895 23.3137694,29.1947895 L23.3137694,29.1947895 Z" id="Shape" fill="#CDDC39"></path>
                                <path d="M2.41676877,20.873289 C2.39677069,20.2979778 3.31168315,18.1768306 2.97471539,17.9236937 C2.63774763,17.6705568 2.37377289,18.2388642 2.14779451,18.0737749 C1.92181613,17.9086856 0.686934277,16.4258837 0.574944992,16.1517354 C0.462955706,15.8775871 0.145986033,14.840026 0.480953985,14.7759913 C0.815921936,14.7119567 2.33377671,16.654007 2.61674964,16.8160947 C2.89972257,16.9781824 3.14569903,16.8411082 3.44367053,16.665013 C3.74164202,16.4889177 4.12460538,15.3623084 3.91062585,15.1401883 C3.69664632,14.9180682 1.83282464,14.257711 2.00280838,13.9755584 C2.17279212,13.6934058 3.89762709,14.0796147 3.89762709,14.0796147 C3.89762709,14.0796147 4.89553162,14.0706098 5.35448771,14.2947311 C5.8134438,14.5188523 6.35339214,15.8845909 6.72235684,16.2037635 C7.09132153,16.5229361 7.85224873,16.9891883 7.99623496,16.7350509 C8.14022118,16.4809134 7.64426863,15.7385119 7.65126796,15.424342 C7.65826729,15.1101721 8.41519487,13.7574405 8.78715928,13.6563858 C9.1591237,13.5553312 9.76906534,14.1946769 10.03404,14.5958939 C10.2990146,14.9971109 11.2059279,16.7380525 11.5928908,16.7200427 C11.9798538,16.702033 12.2058322,15.1531953 12.0228497,14.8070081 C11.8398672,14.4608209 10.9989477,14.0075758 11.0069469,13.4742873 C11.0149461,12.9409989 11.7488759,13.5703393 12.1158408,13.3802365 C12.4828057,13.1901337 13.2067364,11.2760985 13.0057557,10.6787754 C12.8047749,10.0814524 12.144838,9.7972987 12.1458379,9.43810444 C12.1468378,9.07891017 13.9146687,8.56763366 14.3516269,8.18942911 C14.7885851,7.81122457 14.9975651,6.81668669 14.8305811,6.46049405 C14.6635971,6.10430141 14.0396567,5.81514502 14.0336573,5.20281385 C14.0276579,4.59048268 16.4984215,3.10567965 16.7933933,3.27377056 C17.0883651,3.44186147 16.7064016,5.54499892 17.151359,5.64905519 C17.5963165,5.75311147 17.5393219,3.81406277 17.7782991,3.21473864 C18.0172762,2.6154145 20.1220748,1.7079237 20.1480723,1.32271537 C20.1740698,0.937507035 18.9141904,0.707382576 18.2642526,0.752406926 C17.6143147,0.797431277 16.6854036,1.31270996 16.5344181,1.27368885 C16.3834325,1.23466775 16.1444554,1.06257468 16.0004691,1.0145487 C15.8564829,0.966522727 14.1656447,1.14561959 13.7976799,1.26068182 C13.4297151,1.37574405 12.6657882,1.95805898 12.3048227,1.92103896 C11.9438573,1.88401894 12.1028421,1.45778842 11.9078607,1.4257711 C11.7128794,1.39375379 11.0209456,1.87501407 10.4899964,1.86400812 C9.95904716,1.85300216 9.4370971,1.10359686 8.58617851,0.964521645 C8.2612096,0.911492965 7.58027475,1.11960552 6.86334335,1.39675541 C2.67374419,4.8876434 0,10.1404843 0,16.008658 C0,19.4645271 0.940909978,22.6992765 2.55875519,25.4937879 C2.66374514,25.3457078 2.74873701,25.1906239 2.78073395,25.0455455 C2.89472305,24.5152587 2.43776677,21.4496006 2.41676877,20.873289 L2.41676877,20.873289 Z" id="Shape" fill="#CDDC39"></path>
                                <path d="M37.4104207,11.410171 C37.1824426,10.498678 36.9054691,9.60719589 36.5515029,8.75273377 C35.8595691,8.74572998 35.0336481,8.73072186 34.9576554,8.69670346 C34.825668,8.63867208 34.0747399,8.34751461 34.2037275,7.88726569 C34.3237161,7.45603247 35.505603,7.51906656 35.8655685,7.29894751 C34.9736539,5.57701623 33.8377626,4.00316504 32.484892,2.63742641 C32.2289165,2.95759957 31.9119468,3.28777814 31.6679702,3.3257987 C31.1830166,3.40083929 29.3881883,2.54737771 29.088217,2.4913474 C28.7882457,2.4353171 27.8573347,2.84453842 27.3923792,2.83553355 C26.9284236,2.82652868 26.1854947,1.96906494 25.9255196,1.83499242 C25.6665443,1.70091991 24.7166352,1.64088745 24.4716587,1.7759605 C24.2266821,1.91103355 23.8257205,2.7344789 23.9607075,3.17471699 C24.0946947,3.61495509 24.4976562,4.07820563 24.4526605,4.31033117 C24.4076648,4.54245671 23.4667548,5.00070455 23.4147598,5.43193777 C23.3627648,5.863171 25.356574,4.70354383 25.8845235,4.69954167 C26.412473,4.69453896 26.8254335,4.70454437 27.0234145,4.94067208 C27.2193958,5.17679978 28.701254,7.64313366 28.8502397,8.31049459 C28.9992255,8.97785552 28.8412406,10.2225287 29.0072247,10.692783 C29.1732088,11.1630373 29.9651331,12.0885379 29.9651331,12.0885379 L31.6389729,15.2832657 C31.6389729,15.2832657 32.7938624,16.6800211 33.2878152,16.5989773 C33.7817679,16.5179334 31.8719506,13.9275325 31.9419439,13.4262614 C32.0109373,12.9249903 32.902852,12.6768561 33.4507996,13.0330487 C33.9987472,13.3892413 34.9966517,15.4123355 35.3646165,15.0891607 C35.7325813,14.7659859 35.0906427,13.2241521 35.3006226,12.8649578 C35.4346098,12.637835 36.592499,11.9074399 37.4104207,11.410171 L37.4104207,11.410171 Z" id="Shape" fill="#CDDC39"></path>
                                <path d="M37.6633965,19.1013306 C37.4714149,18.8321851 36.5595022,17.0402159 36.3905183,16.9741802 C36.2215345,16.9081445 34.9036606,17.2593344 34.6476851,17.5985179 C34.3907097,17.9377013 34.4817009,18.4319686 34.2437237,18.5840509 C34.0047466,18.7361331 33.4977951,18.3999513 33.2738165,18.8702056 C33.0498379,19.34046 33.4198025,21.104414 33.6107843,21.4285893 C33.801766,21.7527646 34.2157264,21.9498712 34.313717,22.3720996 C34.4107077,22.7953285 33.8397624,23.6147716 33.8397624,23.6147716 L31.1840165,27.3487911 C31.1840165,27.3487911 30.7160612,28.3113117 30.7230606,28.8025774 C30.7300599,29.2938431 31.1220224,29.5459794 31.3679989,29.4549302 C31.6139753,29.363881 31.8709507,28.3573366 31.8709507,28.3573366 C31.8709507,28.3573366 32.7008713,27.2627446 33.2148222,26.9395698 C33.7277731,26.616395 34.2007278,26.4973306 34.6056891,26.3562543 C34.6996801,26.324237 34.867664,26.2291856 35.0646452,26.1091207 C36.3765197,24.0289957 37.2904322,21.6827267 37.7133918,19.1653653 C37.6953935,19.1453544 37.6763953,19.1183398 37.6633965,19.1013306 L37.6633965,19.1013306 Z" id="Shape" fill="#CDDC39"></path>
                            </g>
                        </g>
                    </g>
                </g>
                <g id="Group-8" transform="translate(89.000000, 104.000000)">
                    <g id="Combined-Shape">
                        <use fill="#FFFFFF" fill-rule="evenodd" xlink:href="#path-7"></use>
                        <use stroke="#E4E4E4" mask="url(#mask-8)" stroke-width="6" xlink:href="#path-7"></use>
                    </g>
                    <g id="Combined-Shape-Copy">
                        <use fill="#FFFFFF" fill-rule="evenodd" xlink:href="#path-9"></use>
                        <use stroke="#FFFFFF" mask="url(#mask-10)" stroke-width="4" xlink:href="#path-9"></use>
                    </g>
                    <circle id="Oval-172-Copy-2" fill="#EFCB2D" opacity="0.855701959" cx="55" cy="31" r="16"></circle>
                    <circle id="Oval-172-Copy-5" fill="#52983E" opacity="0.855701959" cx="47" cy="53" r="16"></circle>
                    <circle id="Oval-172-Copy-4" fill="#DC712D" opacity="0.855701959" cx="25" cy="53" r="16"></circle>
                    <circle id="Oval-172" fill="#4784C3" opacity="0.855701959" cx="17" cy="31" r="16"></circle>
                    <circle id="Oval-172-Copy-3" fill="#A42922" opacity="0.855701959" cx="36" cy="17" r="16"></circle>
                    <path d="M55,26.0666667 C55,24.93 54.07,24 52.9333333,24 L20.0666667,24 C18.93,24 18,24.93 18,26.0666667 L18,55 L26.2666667,46.7333333 L52.9333333,46.7333333 C54.07,46.7333333 55,45.8033333 55,44.6666667 L55,26.0666667 Z" id="Path" fill="#FFFFFF"></path>
                    <path d="M26.847168,36.6577148 L26.8735352,36.6533203 L27.5283203,32.6015625 L28.7895508,32.6015625 L27.5371094,39 L26.3857422,39 L25.449707,35.0361328 L25.4233398,35.0361328 L24.4916992,39 L23.340332,39 L22.0791016,32.6015625 L23.3491211,32.6015625 L24.0039062,36.6621094 L24.0302734,36.6665039 L24.9487305,32.6015625 L25.9243164,32.6015625 L26.847168,36.6577148 Z M30.9780273,39.0922852 C30.3510711,39.0922852 29.8647478,38.8754904 29.519043,38.4418945 C29.1733381,38.0082986 29.0004883,37.4501987 29.0004883,36.7675781 L29.0004883,36.5874023 C29.0004883,35.8696253 29.1667464,35.2851585 29.4992676,34.8339844 C29.8317888,34.3828102 30.2998017,34.1572266 30.9033203,34.1572266 C31.4628934,34.1572266 31.8920883,34.3491192 32.190918,34.7329102 C32.4897476,35.1167011 32.6391602,35.6381803 32.6391602,36.2973633 L32.6391602,36.9741211 L30.2397461,36.9741211 C30.260254,37.3256854 30.3400872,37.6054677 30.479248,37.8134766 C30.6184089,38.0214854 30.8330064,38.1254883 31.1230469,38.1254883 C31.3691419,38.1254883 31.5749503,38.0969241 31.7404785,38.0397949 C31.9060067,37.9826657 32.0839834,37.8925787 32.2744141,37.7695312 L32.5952148,38.5429688 C32.4252921,38.698243 32.1960464,38.8286128 31.9074707,38.934082 C31.618895,39.0395513 31.3090837,39.0922852 30.9780273,39.0922852 L30.9780273,39.0922852 Z M30.9033203,35.128418 C30.6953115,35.128418 30.540772,35.2199698 30.4396973,35.4030762 C30.3386225,35.5861826 30.2749025,35.8374007 30.2485352,36.1567383 L31.4262695,36.1567383 L31.4262695,36.046875 C31.4262695,35.7568345 31.3859867,35.5312508 31.3054199,35.3701172 C31.2248531,35.2089836 31.0908213,35.128418 30.9033203,35.128418 L30.9033203,35.128418 Z M37.046875,36.7412109 C37.046875,37.458988 36.9113783,38.0302713 36.6403809,38.4550781 C36.3693834,38.8798849 35.9731471,39.0922852 35.4516602,39.0922852 C35.2231434,39.0922852 35.0239266,39.0388189 34.8540039,38.9318848 C34.6840812,38.8249506 34.5390631,38.6704112 34.4189453,38.4682617 L34.3354492,39 L33.2763672,39 L33.2763672,32.1445312 L34.5112305,32.1445312 L34.5112305,34.6669922 C34.6254889,34.5029289 34.7602531,34.3769536 34.9155273,34.2890625 C35.0708016,34.2011714 35.2480459,34.1572266 35.4472656,34.1572266 C35.9716823,34.1572266 36.3693834,34.3828102 36.6403809,34.8339844 C36.9113783,35.2851585 37.046875,35.8901329 37.046875,36.6489258 L37.046875,36.7412109 Z M35.8076172,36.6489258 C35.8076172,36.1713843 35.7592778,35.7993177 35.6625977,35.5327148 C35.5659175,35.2661119 35.3886732,35.1328125 35.1308594,35.1328125 C34.987304,35.1328125 34.8635259,35.1694332 34.7595215,35.2426758 C34.6555171,35.3159183 34.5727542,35.4184564 34.5112305,35.550293 L34.5112305,37.7607422 C34.5727542,37.88086 34.6547846,37.970947 34.7573242,38.0310059 C34.8598638,38.0910648 34.9858391,38.1210938 35.1352539,38.1210938 C35.3959974,38.1210938 35.5732417,38.0039074 35.6669922,37.7695312 C35.7607427,37.5351551 35.8076172,37.1923851 35.8076172,36.7412109 L35.8076172,36.6489258 Z M39.0244141,36.4335938 L39.0244141,39 L37.7851562,39 L37.7851562,32.605957 L39.7011719,32.605957 C40.3369172,32.605957 40.8371564,32.7714827 41.2019043,33.1025391 C41.5666522,33.4335954 41.7490234,33.8950166 41.7490234,34.4868164 C41.7490234,34.8178727 41.6721199,35.1049793 41.5183105,35.3481445 C41.3645012,35.5913098 41.1425796,35.7846673 40.8525391,35.9282227 C41.1865251,36.0395513 41.4267571,36.2241198 41.5732422,36.4819336 C41.7197273,36.7397474 41.7929688,37.0620098 41.7929688,37.4487305 L41.7929688,37.9145508 C41.7929688,38.0932626 41.8134764,38.2807607 41.8544922,38.4770508 C41.895508,38.6733408 41.9687495,38.8168941 42.0742188,38.9077148 L42.0742188,39 L40.7910156,39 C40.688476,38.9062495 40.6232912,38.7531749 40.595459,38.5407715 C40.5676268,38.3283681 40.5537109,38.1167003 40.5537109,37.9057617 L40.5537109,37.4575195 C40.5537109,37.1323226 40.4863288,36.880372 40.3515625,36.7016602 C40.2167962,36.5229483 40.0234388,36.4335938 39.7714844,36.4335938 L39.0244141,36.4335938 Z M39.0244141,35.4667969 L39.6923828,35.4667969 C39.9589857,35.4667969 40.1618645,35.3869637 40.3010254,35.2272949 C40.4401862,35.0676262 40.5097656,34.8413101 40.5097656,34.5483398 C40.5097656,34.2495102 40.4409187,34.0122079 40.3032227,33.8364258 C40.1655267,33.6606437 39.9648451,33.5727539 39.7011719,33.5727539 L39.0244141,33.5727539 L39.0244141,35.4667969 Z M46.2490234,33.5727539 L44.7460938,33.5727539 L44.7460938,39 L43.5024414,39 L43.5024414,33.5727539 L42.0390625,33.5727539 L42.0390625,32.6015625 L46.2490234,32.6015625 L46.2490234,33.5727539 Z M50.9248047,37.0136719 L50.9335938,37.0400391 C50.9453126,37.7255894 50.7702655,38.239012 50.4084473,38.5803223 C50.0466291,38.9216326 49.5302768,39.0922852 48.859375,39.0922852 C48.170895,39.0922852 47.6245137,38.8894063 47.2202148,38.4836426 C46.8159159,38.0778788 46.6137695,37.5014686 46.6137695,36.7543945 L46.6137695,34.855957 C46.6137695,34.1118127 46.8093242,33.53467 47.2004395,33.1245117 C47.5915547,32.7143534 48.1196256,32.5092773 48.784668,32.5092773 C49.4848668,32.5092773 50.0224591,32.6791975 50.3974609,33.019043 C50.7724628,33.3588884 50.9541016,33.8730434 50.9423828,34.5615234 L50.9335938,34.5878906 L49.7294922,34.5878906 C49.7294922,34.1777323 49.6569831,33.8906258 49.5119629,33.7265625 C49.3669426,33.5624992 49.1245134,33.4804688 48.784668,33.4804688 C48.4741195,33.4804688 48.2412117,33.5925282 48.0859375,33.8166504 C47.9306633,34.0407726 47.8530273,34.384275 47.8530273,34.847168 L47.8530273,36.7543945 C47.8530273,37.2202172 47.9365226,37.5651844 48.1035156,37.7893066 C48.2705086,38.0134289 48.5224593,38.1254883 48.859375,38.1254883 C49.1669937,38.1254883 49.3881829,38.0441903 49.5229492,37.8815918 C49.6577155,37.7189933 49.7250977,37.4296896 49.7250977,37.0136719 L50.9248047,37.0136719 Z" id="WebRTC" fill="#455A64"></path>
                </g>
                <g id="Group-3" transform="translate(62.000000, 108.500000) scale(1, -1) rotate(-90.000000) translate(-62.000000, -108.500000) translate(22.500000, 79.500000)">
                    <g id="Oval-183">
                        <use fill="#00AAFF" fill-rule="evenodd" xlink:href="#path-11"></use>
                        <use stroke="#FFFFFF" mask="url(#mask-12)" stroke-width="2" xlink:href="#path-11"></use>
                    </g>
                    <g id="Triangle-1" transform="translate(76.316772, 55.679327) scale(1, -1) rotate(9.000000) translate(-76.316772, -55.679327) ">
                        <use fill="#00AAFF" fill-rule="evenodd" xlink:href="#path-13"></use>
                        <use stroke="#FFFFFF" mask="url(#mask-14)" stroke-width="2" xlink:href="#path-13"></use>
                    </g>
                    <path d="M2.02142334,1.98901367 C2.02142334,1.98901367 59.9291224,-4.30052466 76.2103424,54.5628225" id="Path-724" stroke="#00AAFF"></path>
                </g>
                <g id="Group-3-Copy" transform="translate(188.000000, 108.000000) rotate(90.000000) translate(-188.000000, -108.000000) translate(149.000000, 79.000000)">
                    <g id="Triangle-1">
                        <use fill="#00AAFF" fill-rule="evenodd" xlink:href="#path-15"></use>
                        <use stroke="#FFFFFF" mask="url(#mask-16)" stroke-width="2" xlink:href="#path-15"></use>
                    </g>
                    <g id="Oval-183-Copy">
                        <use fill="#00AAFF" fill-rule="evenodd" xlink:href="#path-17"></use>
                        <use stroke="#FFFFFF" mask="url(#mask-18)" stroke-width="2" xlink:href="#path-17"></use>
                    </g>
                    <path d="M2.02142334,1.98901367 C2.02142334,1.98901367 62.174942,-3.58068546 76,55.3570553" id="Path-724" stroke="#00AAFF"></path>
                </g>
                <g id="Group-4" transform="translate(79.500000, 35.000000) rotate(-90.000000) translate(-79.500000, -35.000000) translate(77.500000, 23.500000)">
                    <g id="Triangle-1-Copy" transform="translate(2.000000, 21.500000) rotate(-90.000000) translate(-2.000000, -21.500000) ">
                        <use fill="#00AAFF" fill-rule="evenodd" xlink:href="#path-19"></use>
                        <use stroke="#FFFFFF" mask="url(#mask-20)" stroke-width="2" xlink:href="#path-19"></use>
                    </g>
                    <g id="Oval-183-Copy-2">
                        <use fill="#00AAFF" fill-rule="evenodd" xlink:href="#path-21"></use>
                        <use stroke="#FFFFFF" mask="url(#mask-22)" stroke-width="2" xlink:href="#path-21"></use>
                    </g>
                    <path d="M2,2 L2,21" id="Path-727" stroke="#00AAFF"></path>
                </g>
                <g id="Group-4-Copy" transform="translate(169.500000, 35.000000) rotate(-90.000000) translate(-169.500000, -35.000000) translate(167.500000, 23.500000)">
                    <g id="Triangle-1-Copy" transform="translate(2.000000, 21.500000) rotate(-90.000000) translate(-2.000000, -21.500000) ">
                        <use fill="#00AAFF" fill-rule="evenodd" xlink:href="#path-23"></use>
                        <use stroke="#FFFFFF" mask="url(#mask-24)" stroke-width="2" xlink:href="#path-23"></use>
                    </g>
                    <g id="Oval-183-Copy-2">
                        <use fill="#00AAFF" fill-rule="evenodd" xlink:href="#path-25"></use>
                        <use stroke="#FFFFFF" mask="url(#mask-26)" stroke-width="2" xlink:href="#path-25"></use>
                    </g>
                    <path d="M2,2 L2,21" id="Path-727" stroke="#00AAFF"></path>
                </g>
            </g>
        </g>
    </g>
</svg>