<?xml version="1.0" encoding="UTF-8" standalone="no"?>
<svg width="22px" height="20px" viewBox="0 0 22 20" version="1.1" xmlns="http://www.w3.org/2000/svg" xmlns:xlink="http://www.w3.org/1999/xlink">
    <!-- Generator: Sketch 3.8.3 (29802) - http://www.bohemiancoding.com/sketch -->
    <title>world-2</title>
    <desc>Created with Sketch.</desc>
    <defs>
        <path d="M10.449257,6.60573816 L9.24354144,6.60573816 C6.45013436,5.84223032 2.57390836,5.90862231 0.541131748,6.22398424 C0.288695436,6.28705663 0.288695436,7.3659264 0.47802267,7.42899879 C0.859998668,7.61821595 1.0493259,7.99996986 1.0493259,7.99996986 C1.0493259,7.99996986 1.17554406,8.38172378 1.49441098,9.77595549 C1.80995637,11.1768264 2.63701744,11.4324355 2.63701744,11.4324355 C2.63701744,11.4324355 3.65340575,11.6847251 4.79601221,11.6847251 C5.93861868,11.6847251 6.6394616,11.6216859 7.40009206,11.239932 C8.16072253,10.8581781 8.47958945,9.84234747 8.47958945,9.84234747 C8.47958945,9.84234747 8.86156545,8.95269486 9.11400176,8.12943424 C9.17711084,7.87382509 10.449257,7.87382509 10.5123661,8.12943424 C10.7648356,8.95601446 11.1468116,9.84234747 11.1468116,9.84234747 C11.1468116,9.84234747 11.4656785,10.8581781 12.226309,11.239932 C12.990261,11.6216859 13.6877824,11.6847251 14.8303556,11.6847251 C15.9729621,11.6847251 16.9893504,11.4324355 16.9893504,11.4324355 C16.9893504,11.4324355 17.8164115,11.2432184 18.1319568,9.78259469 C18.4508238,8.321971 18.5770419,8.00660906 18.5770419,8.00660906 C18.5770419,8.00660906 18.7663359,7.62485514 19.1483119,7.43563798 C19.4074245,7.369246 19.4074245,6.22398424 19.1516667,6.22398424 C17.1188901,5.90530271 13.2426641,5.84223032 10.449257,6.60573816 Z" id="path-1"></path>
        <mask id="mask-2" maskContentUnits="userSpaceOnUse" maskUnits="objectBoundingBox" x="-0.8" y="-0.8" width="20.6" height="7.28472508">
            <rect x="-0.456932229" y="5.2" width="20.6" height="7.28472508" fill="white"></rect>
            <use xlink:href="#path-1" fill="black"></use>
        </mask>
    </defs>
    <g id="Page-1" stroke="none" stroke-width="1" fill="none" fill-rule="evenodd">
        <g id="Account" transform="translate(-19.000000, -716.000000)">
            <g id="rate-us-copy-9" transform="translate(0.000000, 716.000000)">
                <g id="world-2" transform="translate(20.000000, 0.000000)">
                    <path d="M3.65,3.165625 L5.39375,2.9225 L6.1975,2.481875 L7.101875,2.7425 L8.546875,2.6625 L9.041875,1.884375 L9.76375,2.003125 L11.516875,1.83875 L12,1.30625 L12.68125,0.85125 L13.645,0.99625 L13.99625,0.943125 C12.726875,0.345625 11.314375,0 9.8175,0 C6.770625,0 4.04625,1.38875 2.2475,3.569375 L2.2525,3.569375 L3.65,3.165625 L3.65,3.165625 Z M10.2325,0.97625 L11.235,0.424375 L11.87875,0.79625 L10.946875,1.505625 L10.056875,1.595 L9.65625,1.335 L10.2325,0.97625 L10.2325,0.97625 Z M7.263125,1.056875 L7.705625,1.24125 L8.285,1.056875 L8.600625,1.60375 L7.263125,1.955 L6.62,1.57875 C6.619375,1.57875 7.24875,1.17375 7.263125,1.056875 Z M10.946875,14.948125 L10.231875,13.6225 L10.888125,12.255 L10.231875,12.05875 L9.495,11.31875 L7.8625,10.9525 L7.320625,9.81875 L7.320625,10.491875 L7.081875,10.491875 L5.675,8.584375 L5.675,7.0175 L4.64375,5.340625 L3.00625,5.6325 L1.903125,5.6325 L1.348125,5.26875 L2.05625,4.7075 L1.35,4.870625 C0.49875,6.324375 0.0025,8.01125 0.0025,9.818125 C0.0025,15.23875 4.396875,19.635 9.818125,19.635 C10.235625,19.635 10.645,19.598125 11.05,19.549375 L10.9475,18.36 C10.9475,18.36 11.398125,16.59375 11.398125,16.53375 C11.3975,16.473125 10.946875,14.948125 10.946875,14.948125 Z M17.971875,4.355 L17.678125,4.448125 L16.11375,4.5875 L15.671875,5.293125 L15.35125,5.19125 L14.10625,4.06875 L13.925625,3.485 L13.68375,2.8625 L12.90125,2.160625 L11.978125,1.98 L11.956875,2.4025 L12.86125,3.285 L13.30375,3.80625 L12.80625,4.06625 L12.40125,3.946875 L11.794375,3.69375 L11.815,3.204375 L11.01875,2.876875 L10.754375,4.0275 L9.951875,4.209375 L10.03125,4.85125 L11.076875,5.0525 L11.2575,4.026875 L12.120625,4.154375 L12.521875,4.389375 L13.165625,4.389375 L13.60625,5.271875 L14.774375,6.456875 L14.68875,6.9175 L13.746875,6.7975 L12.119375,7.619375 L10.9475,9.025 L10.795,9.6475 L10.374375,9.6475 L9.590625,9.28625 L8.829375,9.6475 L9.01875,10.450625 L9.35,10.06875 L9.9325,10.050625 L9.891875,10.771875 L10.374375,10.913125 L10.85625,11.454375 L11.643125,11.233125 L12.541875,11.375 L13.585625,11.655625 L14.106875,11.716875 L14.990625,12.72 L16.69625,13.723125 L15.593125,15.830625 L14.42875,16.371875 L13.986875,17.57625 L12.301875,18.70125 L12.1225,19.35 C16.43,18.3125 19.634375,14.443125 19.634375,9.816875 C19.633125,7.79625 19.020625,5.915625 17.971875,4.355 Z" id="Shape" fill="#00AAFF"></path>
                    <g id="Shape-Copy">
                        <use fill="#90CD3C" fill-rule="evenodd" xlink:href="#path-1"></use>
                        <use stroke="#FFFFFF" mask="url(#mask-2)" stroke-width="1.6" xlink:href="#path-1"></use>
                    </g>
                </g>
            </g>
        </g>
    </g>
</svg>