<?xml version="1.0" encoding="UTF-8"?>
<svg width="121px" height="121px" viewBox="0 0 121 121" version="1.1" xmlns="http://www.w3.org/2000/svg" xmlns:xlink="http://www.w3.org/1999/xlink">
    <!-- Generator: Sketch 52.2 (67145) - http://www.bohemiancoding.com/sketch -->
    <title>Button_expired</title>
    <desc>Created with Sketch.</desc>
    <defs>
        <filter x="-32.2%" y="-32.2%" width="164.3%" height="164.3%" filterUnits="objectBoundingBox" id="filter-1">
            <feOffset dx="0" dy="2" in="SourceAlpha" result="shadowOffsetOuter1"></feOffset>
            <feGaussianBlur stdDeviation="11" in="shadowOffsetOuter1" result="shadowBlurOuter1"></feGaussianBlur>
            <feColorMatrix values="0 0 0 0 0.0235294118   0 0 0 0 0.121568627   0 0 0 0 0.250980392  0 0 0 0.1 0" type="matrix" in="shadowBlurOuter1" result="shadowMatrixOuter1"></feColorMatrix>
            <feMerge>
                <feMergeNode in="shadowMatrixOuter1"></feMergeNode>
                <feMergeNode in="SourceGraphic"></feMergeNode>
            </feMerge>
        </filter>
        <circle id="path-2" cx="71.5" cy="71.5" r="71.5"></circle>
        <circle id="path-4" cx="71.5" cy="71.5" r="60.5"></circle>
    </defs>
    <g id="Button_expired" stroke="none" stroke-width="1" fill="none" fill-rule="evenodd">
        <g id="Group-3" transform="translate(-11.000000, -11.000000)">
            <g id="Group-3-Copy-4" filter="url(#filter-1)">
                <g id="Group-2">
                    <mask id="mask-3" fill="white">
                        <use xlink:href="#path-2"></use>
                    </mask>
                    <use id="Oval-3-Copy-2" fill="#FFAC01" opacity="0" transform="translate(71.500000, 71.500000) scale(-1, -1) translate(-71.500000, -71.500000) " xlink:href="#path-2"></use>
                    <mask id="mask-5" fill="white">
                        <use xlink:href="#path-4"></use>
                    </mask>
                    <use id="Oval-3" fill="#FFAC01" xlink:href="#path-4"></use>
                    <path d="M71.5,19.8333333 C70.5795254,19.8333333 69.8333333,19.0871412 69.8333333,18.1666667 C69.8333333,17.2461921 70.5795254,16.5 71.5,16.5 C72.4204746,16.5 73.1666667,17.2461921 73.1666667,18.1666667 C73.1666667,19.0871412 72.4204746,19.8333333 71.5,19.8333333 Z M87.465878,22.36208 C86.5904547,22.0776377 86.1113699,21.1373808 86.3958122,20.2619575 C86.6802545,19.3865341 87.6205113,18.9074493 88.4959347,19.1918916 C89.371358,19.4763339 89.8504428,20.4165908 89.5660006,21.2920141 C89.2815583,22.1674375 88.3413014,22.6465223 87.465878,22.36208 Z M101.868905,29.7007886 C101.124225,29.1597472 100.959144,28.1174645 101.500185,27.3727849 C102.041227,26.6281053 103.083509,26.4630239 103.828189,27.0040653 C104.572868,27.5451067 104.73795,28.5873895 104.196908,29.3320691 C103.655867,30.0767486 102.613584,30.24183 101.868905,29.7007886 Z M113.299211,41.1310953 C112.75817,40.3864157 112.923251,39.3441329 113.667931,38.8030916 C114.412611,38.2620502 115.454893,38.4271315 115.995935,39.1718111 C116.536976,39.9164907 116.371895,40.9587735 115.627215,41.4998149 C114.882536,42.0408563 113.840253,41.8757749 113.299211,41.1310953 Z M120.63792,55.534122 C120.353478,54.6586986 120.832563,53.7184417 121.707986,53.4339994 C122.583409,53.1495572 123.523666,53.628642 123.808108,54.5040653 C124.092551,55.3794887 123.613466,56.3197455 122.738043,56.6041878 C121.862619,56.8886301 120.922362,56.4095453 120.63792,55.534122 Z M123.166667,71.5 C123.166667,70.5795254 123.912859,69.8333333 124.833333,69.8333333 C125.753808,69.8333333 126.5,70.5795254 126.5,71.5 C126.5,72.4204746 125.753808,73.1666667 124.833333,73.1666667 C123.912859,73.1666667 123.166667,72.4204746 123.166667,71.5 Z M120.63792,87.465878 C120.922362,86.5904547 121.862619,86.1113699 122.738043,86.3958122 C123.613466,86.6802545 124.092551,87.6205113 123.808108,88.4959347 C123.523666,89.371358 122.583409,89.8504428 121.707986,89.5660006 C120.832563,89.2815583 120.353478,88.3413014 120.63792,87.465878 Z M113.299211,101.868905 C113.840253,101.124225 114.882536,100.959144 115.627215,101.500185 C116.371895,102.041227 116.536976,103.083509 115.995935,103.828189 C115.454893,104.572868 114.412611,104.73795 113.667931,104.196908 C112.923251,103.655867 112.75817,102.613584 113.299211,101.868905 Z M101.868905,113.299211 C102.613584,112.75817 103.655867,112.923251 104.196908,113.667931 C104.73795,114.412611 104.572868,115.454893 103.828189,115.995935 C103.083509,116.536976 102.041227,116.371895 101.500185,115.627215 C100.959144,114.882536 101.124225,113.840253 101.868905,113.299211 Z M87.465878,120.63792 C88.3413014,120.353478 89.2815583,120.832563 89.5660006,121.707986 C89.8504428,122.583409 89.371358,123.523666 88.4959347,123.808108 C87.6205113,124.092551 86.6802545,123.613466 86.3958122,122.738043 C86.1113699,121.862619 86.5904547,120.922362 87.465878,120.63792 Z M71.5,123.166667 C72.4204746,123.166667 73.1666667,123.912859 73.1666667,124.833333 C73.1666667,125.753808 72.4204746,126.5 71.5,126.5 C70.5795254,126.5 69.8333333,125.753808 69.8333333,124.833333 C69.8333333,123.912859 70.5795254,123.166667 71.5,123.166667 Z M55.534122,120.63792 C56.4095453,120.922362 56.8886301,121.862619 56.6041878,122.738043 C56.3197455,123.613466 55.3794887,124.092551 54.5040653,123.808108 C53.628642,123.523666 53.1495572,122.583409 53.4339994,121.707986 C53.7184417,120.832563 54.6586986,120.353478 55.534122,120.63792 Z M41.1310953,113.299211 C41.8757749,113.840253 42.0408563,114.882536 41.4998149,115.627215 C40.9587735,116.371895 39.9164907,116.536976 39.1718111,115.995935 C38.4271315,115.454893 38.2620502,114.412611 38.8030916,113.667931 C39.3441329,112.923251 40.3864157,112.75817 41.1310953,113.299211 Z M29.7007886,101.868905 C30.24183,102.613584 30.0767486,103.655867 29.3320691,104.196908 C28.5873895,104.73795 27.5451067,104.572868 27.0040653,103.828189 C26.4630239,103.083509 26.6281053,102.041227 27.3727849,101.500185 C28.1174645,100.959144 29.1597472,101.124225 29.7007886,101.868905 Z M22.36208,87.465878 C22.6465223,88.3413014 22.1674375,89.2815583 21.2920141,89.5660006 C20.4165908,89.8504428 19.4763339,89.371358 19.1918916,88.4959347 C18.9074493,87.6205113 19.3865341,86.6802545 20.2619575,86.3958122 C21.1373808,86.1113699 22.0776377,86.5904547 22.36208,87.465878 Z M19.8333333,71.5 C19.8333333,72.4204746 19.0871412,73.1666667 18.1666667,73.1666667 C17.2461921,73.1666667 16.5,72.4204746 16.5,71.5 C16.5,70.5795254 17.2461921,69.8333333 18.1666667,69.8333333 C19.0871412,69.8333333 19.8333333,70.5795254 19.8333333,71.5 Z M22.36208,55.534122 C22.0776377,56.4095453 21.1373808,56.8886301 20.2619575,56.6041878 C19.3865341,56.3197455 18.9074493,55.3794887 19.1918916,54.5040653 C19.4763339,53.628642 20.4165908,53.1495572 21.2920141,53.4339994 C22.1674375,53.7184417 22.6465223,54.6586986 22.36208,55.534122 Z M29.7007886,41.1310953 C29.1597472,41.8757749 28.1174645,42.0408563 27.3727849,41.4998149 C26.6281053,40.9587735 26.4630239,39.9164907 27.0040653,39.1718111 C27.5451067,38.4271315 28.5873895,38.2620502 29.3320691,38.8030916 C30.0767486,39.3441329 30.24183,40.3864157 29.7007886,41.1310953 Z M41.1310953,29.7007886 C40.3864157,30.24183 39.3441329,30.0767486 38.8030916,29.3320691 C38.2620502,28.5873895 38.4271315,27.5451067 39.1718111,27.0040653 C39.9164907,26.4630239 40.9587735,26.6281053 41.4998149,27.3727849 C42.0408563,28.1174645 41.8757749,29.1597472 41.1310953,29.7007886 Z M55.534122,22.36208 C54.6586986,22.6465223 53.7184417,22.1674375 53.4339994,21.2920141 C53.1495572,20.4165908 53.628642,19.4763339 54.5040653,19.1918916 C55.3794887,18.9074493 56.3197455,19.3865341 56.6041878,20.2619575 C56.8886301,21.1373808 56.4095453,22.0776377 55.534122,22.36208 Z" id="Oval" fill="#FFFFFF" opacity="0.3" mask="url(#mask-5)"></path>
                </g>
            </g>
        </g>
        <path d="M61,48 C53.7643148,48 48,53.7643148 48,61 C48,68.2356867 53.7643148,74 61,74 C68.2356867,74 74,68.2356867 74,61 C74,53.7643148 68.2356867,48 61,48 Z M61.8885938,66.7585451 L61.8885938,68.6799828 L59.9671545,68.6799828 L59.9671545,66.9085665 C58.6342661,66.9085665 57.4571689,66.4642704 56.718598,66.1699957 L57.3071459,63.9542833 C58.0457167,64.3985794 59.2285837,64.842877 60.4114521,64.842877 C61.4442961,64.842877 62.182867,64.3985794 62.182867,63.6600086 C62.182867,62.9214378 61.5885494,62.4771416 60.1114077,62.0328455 C58.0457167,61.2942747 56.718598,60.4114521 56.718598,58.4900129 C56.718598,56.8628498 57.8956953,55.5357296 59.9671545,55.0914335 L59.9671545,53.3200172 L61.8885938,53.3200172 L61.8885938,54.941412 C63.2157124,54.941412 63.9542833,55.2414564 64.6928541,55.5357296 L64.1043062,57.7514421 C63.6600086,57.4571689 62.7714163,57.0128712 61.2942747,57.0128712 C60.1114077,57.0128712 59.6728813,57.6014206 59.6728813,58.0457167 C59.6728813,58.6342661 60.4114521,59.0785622 61.8885938,59.6728813 C64.1043062,60.4114521 64.9871288,61.4442961 64.9871288,63.2157124 C65.2814034,64.9871288 64.1043062,66.4642704 61.8885938,66.7585451 Z" id="Shape" fill="#FFFFFF" fill-rule="nonzero"></path>
    </g>
</svg>