<?xml version="1.0" encoding="UTF-8"?>
<svg width="22px" height="22px" viewBox="0 0 22 22" version="1.1" xmlns="http://www.w3.org/2000/svg" xmlns:xlink="http://www.w3.org/1999/xlink">
    <!-- Generator: Sketch 51.3 (57544) - http://www.bohemiancoding.com/sketch -->
    <title>ic_Keepsolid_Wise</title>
    <desc>Created with Sketch.</desc>
    <defs></defs>
    <g id="ic_Keepsolid_Wise" stroke="none" stroke-width="1" fill="none" fill-rule="evenodd">
        <g id="world-2">
            <path d="M4.015,3.4821875 L5.933125,3.21475 L6.81725,2.7300625 L7.8120625,3.01675 L9.4015625,2.92875 L9.9460625,2.0728125 L10.740125,2.2034375 L12.6685625,2.022625 L13.2,1.436875 L13.949375,0.936375 L15.0095,1.095875 L15.395875,1.0374375 C13.9995625,0.3801875 12.4458125,0 10.79925,0 C7.4476875,0 4.450875,1.527625 2.47225,3.9263125 L2.47775,3.9263125 L4.015,3.4821875 L4.015,3.4821875 Z M11.25575,1.073875 L12.3585,0.4668125 L13.066625,0.875875 L12.0415625,1.6561875 L11.0625625,1.7545 L10.621875,1.4685 L11.25575,1.073875 L11.25575,1.073875 Z M7.9894375,1.1625625 L8.4761875,1.365375 L9.1135,1.1625625 L9.4606875,1.764125 L7.9894375,2.1505 L7.282,1.736625 C7.2813125,1.736625 7.973625,1.291125 7.9894375,1.1625625 Z M12.0415625,16.4429375 C12.0415625,16.4429375 12.53725,18.1204375 12.5379375,18.187125 C12.5379375,18.253125 12.04225,20.196 12.04225,20.196 L12.155,21.5043125 C11.7095,21.5579375 11.2591875,21.5985 10.7999375,21.5985 C4.8365625,21.5985 0.00275,16.762625 0.00275,10.7999375 C0.00275,8.812375 0.548625,6.9568125 1.485,5.3576875 L2.261875,5.17825 L1.4829375,5.795625 L2.0934375,6.19575 L3.306875,6.19575 L5.108125,5.8746875 L6.2425,7.71925 L6.2425,9.4428125 L7.7900625,11.5410625 L8.0526875,11.5410625 L8.0526875,10.800625 L8.64875,12.04775 L10.4445,12.450625 L11.2550625,13.264625 L11.9769375,13.4805 L11.2550625,14.98475 L12.0415625,16.4429375 Z M19.7690625,4.7905 C20.9226875,6.5071875 21.5964375,8.575875 21.5978125,10.7985625 C21.5978125,15.8874375 18.073,20.14375 13.33475,21.285 L13.5320625,20.571375 L15.3855625,19.333875 L15.871625,18.0090625 L17.1524375,17.4136875 L18.365875,15.0954375 L16.4896875,13.992 L15.5175625,12.8885625 L14.9441875,12.8211875 L13.7960625,12.5125 L12.8074375,12.3564375 L11.941875,12.5998125 L11.4118125,12.0044375 L10.8810625,11.8490625 L10.92575,11.0556875 L10.285,11.075625 L9.920625,11.4956875 L9.7123125,10.61225 L10.5496875,10.214875 L11.4118125,10.61225 L11.8745,10.61225 L12.04225,9.9275 L13.3313125,8.3813125 L15.1215625,7.47725 L16.157625,7.60925 L16.2518125,7.1025625 L14.966875,5.7990625 L14.4821875,4.8283125 L13.7740625,4.8283125 L13.3326875,4.5698125 L12.38325,4.4295625 L12.1845625,5.55775 L11.034375,5.336375 L10.9470625,4.6303125 L11.8298125,4.43025 L12.120625,3.1645625 L12.9965,3.5248125 L12.9738125,4.063125 L13.641375,4.3415625 L14.086875,4.472875 L14.634125,4.186875 L14.147375,3.6135 L13.1525625,2.64275 L13.1759375,2.178 L14.191375,2.3766875 L15.052125,3.14875 L15.3181875,3.8335 L15.516875,4.475625 L16.886375,5.710375 L17.2390625,5.8224375 L17.725125,5.04625 L19.4459375,4.8929375 L19.7690625,4.7905 Z" id="Shape" fill="#00AAFF"></path>
            <path d="M0.801197112,7.86288315 C0.801352846,7.86365777 0.801509267,7.86442953 0.801666371,7.86519843 C0.80144289,7.86410468 0.800930746,7.86254181 0.79974229,7.86057004 Z M20.8425999,7.16179992 C20.8421736,7.16029622 20.8417441,7.1588097 20.8413116,7.15734063 C20.8423381,7.16082709 20.84408,7.16496673 20.8465841,7.16951196 Z M11.4409478,6.86631198 C14.2151554,6.12093687 18.3701912,6.01877084 21.0668334,6.44638267 C21.8664224,6.44638267 21.8636602,8.38700851 21.240698,8.53763487 C21.1533325,8.58091256 21.0709508,8.64257567 20.995051,8.71865758 C20.8909304,8.82302797 20.821454,8.9278024 20.806107,8.95590073 C20.7468762,9.10389149 20.5946525,9.66113101 20.3361328,10.8453195 C20.2036338,11.4586425 19.9838187,11.9410759 19.6968002,12.3044493 C19.375716,12.710951 19.0350325,12.9066842 18.7846497,12.963898 C18.634422,13.0011878 18.3745176,13.0555215 18.0349372,13.109482 C17.469811,13.1992824 16.8863366,13.2531976 16.3133912,13.2531976 C14.8416443,13.2531976 14.1077875,13.140319 13.2695137,12.7214252 C12.9130871,12.5425377 12.6143851,12.259327 12.364587,11.9036323 C12.1139919,11.5468028 11.9575988,11.1940571 11.8941535,10.9848916 C11.8636963,10.9142191 11.811254,10.7890063 11.7441128,10.6226782 C11.6324118,10.3459625 11.5207147,10.0552367 11.4162598,9.76369415 C11.3514078,9.58268658 11.2913259,9.40674735 11.2369593,9.23753605 C11.2178966,9.17774701 11.211619,9.15805749 11.1995138,9.1183482 C11.214824,9.17186297 11.2182544,9.17513178 11.2076544,9.17250886 C11.1036669,9.14677773 10.9530849,9.13150012 10.7945023,9.13150012 C10.6359197,9.13150012 10.4853377,9.14677773 10.3813502,9.17250886 C10.3699763,9.17532327 10.3747563,9.17135429 10.3873799,9.13277501 C10.3794753,9.15112963 10.3677055,9.18806508 10.3462404,9.25492418 C10.2933901,9.41820621 10.2352552,9.58785778 10.1726902,9.76235889 C10.0682921,10.0535374 9.95665553,10.3443622 9.84501677,10.6214971 C9.77791972,10.7880605 9.72551965,10.9135482 9.70918821,10.9463781 C9.63144233,11.1940571 9.47504923,11.5468028 9.22445415,11.9036323 C8.97465599,12.259327 8.67595404,12.5425377 8.31952745,12.7214252 C7.48536444,13.1400844 6.74923513,13.2531976 5.27561344,13.2531976 C4.70266803,13.2531976 4.11919358,13.1992824 3.55406738,13.109482 C3.21448705,13.0555215 2.95458257,13.0011878 2.78260845,12.9578438 C2.53528742,12.8814075 2.20518171,12.6722465 1.89063167,12.2687605 C1.605716,11.9032878 1.38634638,11.4306502 1.25391994,10.8427302 C1.10142216,10.1759403 0.977799867,9.67019824 0.880846657,9.30401831 C0.823860016,9.08878703 0.789066747,8.96965717 0.79590762,8.97768757 C0.767555206,8.92051859 0.698066943,8.81573849 0.593934941,8.71136274 C0.518027058,8.63527718 0.435638948,8.57361114 0.399400023,8.55139404 C-0.201965502,8.35105541 -0.154169156,6.62133079 0.533923077,6.45111107 C3.30387553,6.02138478 7.45166773,6.12224698 10.2211293,6.86631198 L11.4409478,6.86631198 Z" id="Shape-Copy" stroke="#F4F8FD" stroke-width="0.8" fill="#2E3252"></path>
        </g>
    </g>
</svg>