<?xml version="1.0" encoding="UTF-8"?>
<svg width="28px" height="28px" viewBox="0 0 28 28" version="1.1" xmlns="http://www.w3.org/2000/svg" xmlns:xlink="http://www.w3.org/1999/xlink">
    <!-- Generator: Sketch 51.3 (57544) - http://www.bohemiancoding.com/sketch -->
    <title>ic_optimal_server</title>
    <desc>Created with Sketch.</desc>
    <defs>
        <polygon id="path-1" points="0.00221343874 0.0586387435 27.9962048 0.0586387435 27.9962048 27.9999267 0.00221343874 27.9999267"></polygon>
    </defs>
    <g id="ic_optimal_server" stroke="none" stroke-width="1" fill="none" fill-rule="evenodd">
        <g id="target">
            <mask id="mask-2" fill="white">
                <use xlink:href="#path-1"></use>
            </mask>
            <g id="Clip-2"></g>
            <path d="M12.6431252,27.9999267 C19.6258235,27.9999267 25.286361,22.3765812 25.286361,15.4395812 C25.286361,13.3051675 24.7521845,11.2967906 23.8077101,9.53762827 C23.7044163,9.55221466 23.5982082,9.55807853 23.4948775,9.55807853 C23.4359262,9.55807853 23.3739868,9.5552199 23.3120105,9.55221466 L21.7035046,9.42910995 L20.5466509,10.5783927 C21.4290013,11.9916963 21.9395679,13.6569267 21.9395679,15.4395812 C21.9395679,20.5382565 17.7784137,24.6723246 12.6461502,24.6723246 C7.51388669,24.6723246 3.34970751,20.5382565 3.34970751,15.4395812 C3.34970751,10.3409058 7.51100922,6.20698429 12.6431252,6.20698429 C14.4405112,6.20698429 16.1167484,6.71420942 17.5363004,7.59078534 L18.5841054,6.54998429 L18.4424453,4.71752356 C18.4306403,4.5709267 18.4335178,4.42432984 18.4482003,4.28059162 C16.7100237,3.38642408 14.7356364,2.87919895 12.6402477,2.87919895 C5.66053755,2.87919895 0,8.5025445 0,15.4395812 C0,22.3765812 5.66053755,27.9999267 12.6431252,27.9999267 Z" id="Fill-1" fill="#00AAFF" mask="url(#mask-2)"></path>
            <path d="M12.6431252,12.1939634 C12.725834,12.1939634 12.8083953,12.196822 12.8911041,12.2026859 L15.2756047,9.83368063 C14.4758155,9.46132461 13.5845375,9.25315707 12.6431252,9.25315707 C9.20495389,9.25315707 6.41897233,12.0208691 6.41897233,15.4367225 C6.41897233,18.8523927 9.20495389,21.6229634 12.6431252,21.6229634 C16.081444,21.6229634 18.8673887,18.8552513 18.8673887,15.4395812 C18.8673887,14.5042932 18.6578867,13.6188482 18.2830777,12.8242932 L18.2327589,12.8741361 L15.8984295,15.1933351 C15.904332,15.275356 15.9072095,15.3575236 15.9072095,15.4395812 C15.9072095,17.2309581 14.4464506,18.6851623 12.6402477,18.6851623 C10.8340448,18.6851623 9.37612648,17.2309581 9.37612648,15.4395812 C9.37612648,13.6482042 10.8399473,12.1939634 12.6431252,12.1939634 Z" id="Fill-3" fill="#00AAFF" mask="url(#mask-2)"></path>
            <path d="M25.6730119,4.23950785 L26.4224822,3.49494241 C26.7649012,3.1547644 26.7649012,2.60649215 26.4224822,2.26631414 L25.9031357,1.74736126 C25.7319631,1.57741885 25.5077049,1.49239267 25.286361,1.49239267 C25.0650171,1.49239267 24.8377708,1.57741885 24.6694756,1.74736126 L23.8107352,2.60059162 L23.6336601,0.328340314 C23.6218182,0.161293194 23.4830725,0.0586387435 23.3385349,0.0586387435 C23.2647536,0.0586387435 23.1909723,0.0849895288 23.1318735,0.143664921 L19.7527642,3.50080628 C19.4487115,3.80272251 19.2923689,4.22206283 19.3247958,4.65008901 L19.3335758,4.78195288 L19.4959684,6.88411518 L16.0755415,10.2823403 L16.0252227,10.3321466 L12.9530804,13.3843665 C12.8291647,13.5074712 12.7523584,13.6716597 12.7405165,13.8446073 L12.6816021,14.5804503 C12.6461502,15.0086597 12.9883847,15.3721466 13.41639,15.3721466 L13.4547194,15.3721466 L14.2369117,15.3340681 C14.4197787,15.325199 14.5940132,15.2490052 14.7208063,15.1200366 L21.3611225,8.52317801 L23.2912411,8.66977487 L23.3768643,8.67563874 C23.4151937,8.67849738 23.4536706,8.67849738 23.488975,8.67849738 C23.878614,8.67849738 24.2534229,8.52603665 24.5337181,8.2504712 L27.9099499,4.89633508 C28.087025,4.7203822 27.9749144,4.41546073 27.724058,4.39783246 L25.6730119,4.23950785 Z" id="Fill-4" fill="#2E3252" mask="url(#mask-2)"></path>
        </g>
    </g>
</svg>