<?xml version="1.0" encoding="UTF-8"?>
<svg width="22px" height="21px" viewBox="0 0 22 21" version="1.1" xmlns="http://www.w3.org/2000/svg" xmlns:xlink="http://www.w3.org/1999/xlink">
    <!-- Generator: Sketch 51.3 (57544) - http://www.bohemiancoding.com/sketch -->
    <title>icon</title>
    <desc>Created with Sketch.</desc>
    <defs></defs>
    <g id="Page-1" stroke="none" stroke-width="1" fill="none" fill-rule="evenodd">
        <g id="menu-(extention)" transform="translate(-16.000000, -384.000000)">
            <g id="icon" transform="translate(16.000000, 383.000000)">
                <rect id="Rectangle-4" x="0" y="0" width="22" height="22"></rect>
                <path d="M7.63442903,3.60526316 C5.42124264,3.60526316 3.51130534,5.10042105 3.51130534,7.97368421 C3.51130534,9.85073684 4.41296599,11.7684211 5.55956679,12.9473684 C6.00646019,14.1246316 5.19524226,14.964 5.02755083,15.0263158 C2.71221737,15.8667368 5.04026771e-16,17.3814737 0,18.8947368 L0,19.4736842 C0,21.536 3.97607448,22 7.66102983,22 C11.3502413,22 15.2954589,21.536 15.2954589,19.4736842 L15.2954589,18.8947368 C15.2954589,17.3351579 12.565153,15.8338947 10.134904,15.0263158 C10.0233935,14.9901053 9.32496295,14.2574737 9.76249287,12.9210526 L9.73589208,12.9210526 C10.8765343,11.7412632 11.8639559,9.844 11.8639559,7.97368421 C11.8639559,5.10042105 9.84591298,3.60526316 7.63442903,3.60526316 Z" id="Shape" fill="#00AAFF" fill-rule="nonzero"></path>
                <path d="M14.8881337,1 C13.3726213,1 12.0497088,1.78105263 11.4639017,3.26315789 C12.6936751,4.27789474 13.5447811,5.84652632 13.5447811,7.97368421 C13.5447811,10.2448421 12.4728385,12.3206316 11.3585408,13.6578947 C13.1336626,14.3290526 15.9116103,15.6736842 16.7056106,17.7368421 C19.5023125,17.5818947 22,17.0193684 22,15.4210526 L22,14.8947368 C21.9991571,13.4294737 19.4420461,11.9955789 17.179735,11.2368421 C17.0769027,11.2023158 16.430197,11.0467368 16.8373119,9.78947368 C17.8993506,8.68126316 18.6284486,6.88736842 18.6284486,5.13157895 C18.6284486,2.42926316 16.9464658,1 14.8881337,1 Z" id="Path" fill="#2E3252"></path>
            </g>
        </g>
    </g>
</svg>