<?xml version="1.0" encoding="UTF-8"?>
<svg width="20px" height="22px" viewBox="0 0 20 22" version="1.1" xmlns="http://www.w3.org/2000/svg" xmlns:xlink="http://www.w3.org/1999/xlink">
    <!-- Generator: Sketch 51.3 (57544) - http://www.bohemiancoding.com/sketch -->
    <title>Group 2</title>
    <desc>Created with Sketch.</desc>
    <defs></defs>
    <g id="Page-1" stroke="none" stroke-width="1" fill="none" fill-rule="evenodd">
        <g id="Login_3-(extention)" transform="translate(-32.000000, -187.000000)" fill="#EE6A44">
            <g id="Group-2" transform="translate(32.000000, 187.000000)">
                <path d="M2.72727273,8.46153846 C1.22159091,8.46153846 0,9.59855769 0,11 L0,19.4615385 C0,20.8629808 1.22159091,22 2.72727273,22 L17.2727273,22 C18.7784091,22 20,20.8629808 20,19.4615385 L20,11 C20,9.59855769 18.7784091,8.46153846 17.2727273,8.46153846 L2.72727273,8.46153846 Z M4.59227274,13.1912169 C5.62312258,13.1912169 6.45727275,14.0253671 6.45727275,15.0562169 C6.45727275,16.0870668 5.62312258,16.9212169 4.59227274,16.9212169 C3.56142289,16.9212169 2.72727273,16.0870668 2.72727273,15.0562169 C2.72727273,14.0253671 3.56142289,13.1912169 4.59227274,13.1912169 Z M10.0468182,13.1912169 C11.077668,13.1912169 11.9118182,14.0253671 11.9118182,15.0562169 C11.9118182,16.0870668 11.077668,16.9212169 10.0468182,16.9212169 C9.01596834,16.9212169 8.18181818,16.0870668 8.18181818,15.0562169 C8.18181818,14.0253671 9.01596834,13.1912169 10.0468182,13.1912169 Z M15.5013636,13.1912169 C16.5322135,13.1912169 17.3663637,14.0253671 17.3663637,15.0562169 C17.3663637,16.0870668 16.5322135,16.9212169 15.5013636,16.9212169 C14.4705138,16.9212169 13.6363636,16.0870668 13.6363636,15.0562169 C13.6363636,14.0253671 14.4705138,13.1912169 15.5013636,13.1912169 Z" id="Shape" fill-rule="nonzero" opacity="0.900000036"></path>
                <path d="M10,0 C7.56392091,0 5.63210273,0.704026231 4.40340909,1.98317308 C3.17471636,3.26231992 2.72727273,4.94140646 2.72727273,6.68990385 L2.72727273,7.61538462 L5.45454545,7.61538462 L5.45454545,6.68990385 C5.45454545,5.34134615 5.78125,4.33984354 6.42045455,3.67548077 C7.05965909,3.011118 8.08948909,2.53846154 10,2.53846154 C11.9140627,2.53846154 12.9438918,2.99128585 13.5795455,3.64903846 C14.2151991,4.30679108 14.5454545,5.328125 14.5454545,6.68990385 L14.5454545,7.61538462 L17.2727273,7.61538462 L17.2727273,6.68990385 C17.2727273,4.93149038 16.8288355,3.23257254 15.5965909,1.95673077 C14.3643464,0.680889846 12.4325282,0 10,0 Z" id="Path"></path>
            </g>
        </g>
    </g>
</svg>