<?xml version="1.0" encoding="UTF-8"?>
<svg width="22px" height="22px" viewBox="0 0 22 22" version="1.1" xmlns="http://www.w3.org/2000/svg" xmlns:xlink="http://www.w3.org/1999/xlink">
    <!-- Generator: Sketch 51.3 (57544) - http://www.bohemiancoding.com/sketch -->
    <title>ic_Change_password</title>
    <desc>Created with Sketch.</desc>
    <defs></defs>
    <g id="ic_Change_password" stroke="none" stroke-width="1" fill="none" fill-rule="evenodd">
        <g id="icon">
            <path d="M3.72727273,8.46153846 C2.22159091,8.46153846 1,9.59855769 1,11 L1,19.4615385 C1,20.8629808 2.22159091,22 3.72727273,22 L18.2727273,22 C19.7784091,22 21,20.8629808 21,19.4615385 L21,11 C21,9.59855769 19.7784091,8.46153846 18.2727273,8.46153846 L3.72727273,8.46153846 Z M5.59227274,13.1912169 C6.62312258,13.1912169 7.45727275,14.0253671 7.45727275,15.0562169 C7.45727275,16.0870668 6.62312258,16.9212169 5.59227274,16.9212169 C4.56142289,16.9212169 3.72727273,16.0870668 3.72727273,15.0562169 C3.72727273,14.0253671 4.56142289,13.1912169 5.59227274,13.1912169 Z M11.0468182,13.1912169 C12.077668,13.1912169 12.9118182,14.0253671 12.9118182,15.0562169 C12.9118182,16.0870668 12.077668,16.9212169 11.0468182,16.9212169 C10.0159683,16.9212169 9.18181818,16.0870668 9.18181818,15.0562169 C9.18181818,14.0253671 10.0159683,13.1912169 11.0468182,13.1912169 Z M16.5013636,13.1912169 C17.5322135,13.1912169 18.3663637,14.0253671 18.3663637,15.0562169 C18.3663637,16.0870668 17.5322135,16.9212169 16.5013636,16.9212169 C15.4705138,16.9212169 14.6363636,16.0870668 14.6363636,15.0562169 C14.6363636,14.0253671 15.4705138,13.1912169 16.5013636,13.1912169 Z" id="Shape" fill="#00AAFF" fill-rule="nonzero" opacity="0.900000036"></path>
            <path d="M11,0 C8.56392091,0 6.63210273,0.704026231 5.40340909,1.98317308 C4.17471636,3.26231992 3.72727273,4.94140646 3.72727273,6.68990385 L3.72727273,7.61538462 L6.45454545,7.61538462 L6.45454545,6.68990385 C6.45454545,5.34134615 6.78125,4.33984354 7.42045455,3.67548077 C8.05965909,3.011118 9.08948909,2.53846154 11,2.53846154 C12.9140627,2.53846154 13.9438918,2.99128585 14.5795455,3.64903846 C15.2151991,4.30679108 15.5454545,5.328125 15.5454545,6.68990385 L15.5454545,7.61538462 L18.2727273,7.61538462 L18.2727273,6.68990385 C18.2727273,4.93149038 17.8288355,3.23257254 16.5965909,1.95673077 C15.3643464,0.680889846 13.4325282,0 11,0 Z" id="Path" fill="#2E3252"></path>
            <rect id="Rectangle" x="0" y="0" width="22" height="22"></rect>
        </g>
    </g>
</svg>