<?xml version="1.0" encoding="UTF-8"?>
<svg width="22px" height="22px" viewBox="0 0 22 22" version="1.1" xmlns="http://www.w3.org/2000/svg" xmlns:xlink="http://www.w3.org/1999/xlink">
    <!-- Generator: Sketch 51.3 (57544) - http://www.bohemiancoding.com/sketch -->
    <title>ic_WEb RTC </title>
    <desc>Created with Sketch.</desc>
    <defs></defs>
    <g id="ic_WEb-RTC-" stroke="none" stroke-width="1" fill="none" fill-rule="evenodd">
        <g id="icon_webrtc">
            <path d="M20.9,4.4 L18.7,4.4 L18.7,14.3 L4.4,14.3 L4.4,16.5 C4.4,17.105 4.895,17.6 5.5,17.6 L17.6,17.6 L22,22 L22,5.5 C22,4.895 21.505,4.4 20.9,4.4 L20.9,4.4 Z" id="Shape" fill="#2E3252"></path>
            <path d="M16.5,11 L16.5,1.1 C16.5,0.495 16.005,0 15.4,0 L1.1,0 C0.495,0 0,0.495 0,1.1 L0,16.5 L4.4,12.1 L15.4,12.1 C16.005,12.1 16.5,11.605 16.5,11 L16.5,11 Z" id="Path" fill="#00AAFF"></path>
        </g>
    </g>
</svg>