<?xml version="1.0" encoding="UTF-8"?>
<svg width="22px" height="22px" viewBox="0 0 22 22" version="1.1" xmlns="http://www.w3.org/2000/svg" xmlns:xlink="http://www.w3.org/1999/xlink">
    <!-- Generator: Sketch 51.3 (57544) - http://www.bohemiancoding.com/sketch -->
    <title>ic_id</title>
    <desc>Created with Sketch.</desc>
    <defs></defs>
    <g id="ic_id" stroke="none" stroke-width="1" fill="none" fill-rule="evenodd">
        <g id="icon">
            <circle id="Oval-37" fill="#00AAFF" cx="11" cy="11" r="11"></circle>
            <path d="M13.5795504,0.304135976 L9.42857143,10.8420635 L13.692985,21.6679629 C12.8312249,21.8848209 11.9290632,22 11,22 C4.92486775,22 0,17.0751322 0,11 C0,4.92486775 4.92486775,0 11,0 C11.8883817,0 12.7521663,0.105313088 13.5795504,0.304135976 Z" id="Oval-37" fill="#2E3252"></path>
            <rect id="Rectangle-235" fill="#FFFFFF" x="4.71428571" y="4.71428571" width="12.5714286" height="12.5714286" rx="6.28571429"></rect>
            <g id="Page-1" transform="translate(7.857143, 8.380952)" fill="#2E3252">
                <path d="M3.19269388,0.906527211 L3.91667347,0.906527211 C5.06157143,0.906527211 5.63402041,1.51770068 5.63402041,2.74117007 C5.63402041,3.98933333 5.01835714,4.61397619 3.78703061,4.61397619 L3.19269388,4.61397619 L3.19269388,0.906527211 Z M3.78703061,5.24703741 C4.66871429,5.24703741 5.34386735,5.02367007 5.8124898,4.5774966 C6.28111224,4.13188435 6.51570408,3.48703741 6.51570408,2.64351701 C6.51570408,1.84938435 6.28953061,1.23315986 5.83718367,0.795404762 C5.38483673,0.35764966 4.75177551,0.138210884 3.938,0.138210884 L2.35646939,0.138210884 L2.35646939,5.24703741 L3.78703061,5.24703741 Z" id="Fill-1"></path>
                <polygon id="Fill-9" points="1.00627551 0.138435374 0.17005102 0.138435374 0.17005102 5.24670068 1.00627551 5.24670068"></polygon>
            </g>
            <rect id="Rectangle-3" x="0" y="0" width="22" height="22"></rect>
        </g>
    </g>
</svg>