<svg width="147" height="31" viewBox="0 0 147 31" xmlns="http://www.w3.org/2000/svg"><title>vpn_logo</title><g fill="none" fill-rule="evenodd"><g fill-rule="nonzero"><path d="M12.5 31S25 26.126 25 16.316v-13.2C21.916 3.116 12.5 0 12.5 0S3.08 3.116 0 3.116v13.2C0 26.05 12.5 31 12.5 31z" fill="#0AF"/><path d="M17.882 19.671c1.801-.085 3.202-2.44 3.114-5.312-.08-2.629-1.404-4.806-3.008-5.184v-.003c-.007-.002-.014-.001-.02-.002l-.028-.008v.004c-1.081-.209-2.062.426-2.603 1.318-1.304 2.15-.628 5.962-2.201 8.051-.714.948-1.699 1.398-2.675 1.203-1.61-.405-2.893-2.573-2.973-5.204-.09-2.934 1.386-5.331 3.237-5.355l-.002-.01c1.834-.019 3.392 2.33 3.48 5.248.004.12.005.24.004.357.191-1.45.321-2.93.887-4.042-.945-2.821-2.823-4.754-4.931-4.732-2.962.038-5.3 3.872-5.157 8.566.13 4.243 2.218 7.729 4.802 8.333v.004c.014.004.029.005.044.008l.024.007v-.003c1.718.344 2.902-.412 3.646-1.33 3.058-3.766 1.731-7.312 2.857-9.415.364-.68.983-1.205 1.777-1.044.994.246 1.837 1.61 1.887 3.245.056 1.82-.852 3.305-2 3.32l-.005.043c-1.055-.032-1.962-1.263-2.142-2.85-.086 1.002-.154 2.124-.48 3.319.64.939 1.539 1.518 2.461 1.507l.005-.039z" fill="#FFF"/></g><g fill="#0AF"><path d="M41.89 27.737h-1.772L36 16h1.674l3.347 10.175h.033L44.434 16h1.624L41.89 27.737zm7.384-6.115h3.051c.886.01 1.535-.17 1.945-.543.41-.372.615-.91.615-1.61 0-.702-.205-1.236-.615-1.603-.41-.367-1.059-.55-1.945-.55h-3.051v4.306zM47.715 16h5.136c1.18 0 2.075.304 2.682.912.607.609.91 1.46.91 2.556s-.303 1.951-.91 2.565c-.607.614-1.501.915-2.682.904h-3.577v4.8h-1.559V16zm11.026 0h1.657l6.17 9.518h.032V16h1.477v11.737H66.37l-6.12-9.42h-.033v9.42h-1.476V16zm26.596 7.496c0 1.501-.399 2.627-1.197 3.378-.799.75-1.936 1.126-3.413 1.126-1.51 0-2.688-.359-3.536-1.077-.848-.718-1.272-1.86-1.272-3.427V16h1.56v7.496c0 1.052.278 1.85.836 2.392.558.542 1.362.813 2.412.813.995 0 1.753-.27 2.272-.813.52-.543.78-1.34.78-2.392V16h1.558v7.496zm2.675-4.258h1.312v1.348h.033c.58-1.03 1.499-1.545 2.757-1.545.558 0 1.022.077 1.394.23.372.154.673.367.903.641.23.274.39.6.484.978.093.378.14.798.14 1.258v5.589H93.64v-5.753c0-.526-.154-.943-.46-1.25-.306-.307-.727-.46-1.263-.46-.427 0-.796.066-1.108.197a2.077 2.077 0 0 0-.78.56 2.41 2.41 0 0 0-.467.846 3.449 3.449 0 0 0-.156 1.06v4.8h-1.394v-8.499zM97.627 16h1.394v11.737h-1.394V16zm5.447 1.71h-1.395V16h1.395v1.71zm-1.395 1.528h1.395v8.499h-1.395v-8.499zm3.97 0h1.314v1.25h.032c.635-.965 1.548-1.447 2.74-1.447.525 0 1.001.11 1.428.329.426.219.727.592.902 1.118.285-.46.66-.817 1.124-1.069a3.166 3.166 0 0 1 1.534-.378c.427 0 .812.047 1.157.14.345.093.64.238.886.435.246.198.438.452.574.765.137.312.205.687.205 1.126v6.23h-1.394v-5.573c0-.263-.022-.51-.066-.74a1.512 1.512 0 0 0-.246-.6 1.229 1.229 0 0 0-.5-.402c-.214-.099-.49-.148-.829-.148-.69 0-1.23.197-1.624.592-.394.394-.591.92-.591 1.578v5.293H110.9v-5.573c0-.274-.024-.526-.074-.756a1.61 1.61 0 0 0-.254-.6 1.188 1.188 0 0 0-.484-.394c-.202-.093-.462-.14-.78-.14-.404 0-.751.082-1.041.247a2.362 2.362 0 0 0-1.1 1.306 2.032 2.032 0 0 0-.122.617v5.293h-1.395v-8.499zm15.883-1.528h-1.394V16h1.394v1.71zm-1.394 1.528h1.394v8.499h-1.394v-8.499zm5.906 0h1.69v1.233h-1.69v5.277c0 .164.014.296.041.394.028.1.08.176.156.23a.686.686 0 0 0 .32.107c.137.017.315.025.534.025h.64v1.233h-1.067c-.361 0-.67-.025-.927-.074a1.36 1.36 0 0 1-.624-.271 1.16 1.16 0 0 1-.352-.56c-.077-.24-.115-.558-.115-.953v-5.408h-1.444v-1.233h1.444V16.69h1.394v2.548zm9.533 3.436a2.863 2.863 0 0 0-.221-.937 2.395 2.395 0 0 0-.509-.764 2.382 2.382 0 0 0-1.715-.699c-.36 0-.686.063-.976.189-.29.126-.538.299-.746.518a2.49 2.49 0 0 0-.493.764c-.12.29-.19.6-.213.929h4.873zm1.346 2.367c-.186.954-.597 1.671-1.23 2.154-.635.482-1.434.723-2.396.723-.679 0-1.267-.11-1.764-.329a3.478 3.478 0 0 1-1.255-.92 3.913 3.913 0 0 1-.763-1.414 6.824 6.824 0 0 1-.287-1.792c0-.647.098-1.238.295-1.775a4.245 4.245 0 0 1 .828-1.398 3.76 3.76 0 0 1 2.864-1.249c.754 0 1.38.156 1.878.469.498.312.897.71 1.198 1.191.3.483.509 1.009.623 1.578.115.57.162 1.113.14 1.628h-6.35c-.01.372.033.726.131 1.06.099.334.257.63.476.888.219.257.498.463.837.616.34.154.738.23 1.198.23.59 0 1.074-.137 1.452-.41.377-.275.626-.691.746-1.25h1.379zm3.002-1.48c0 .395.052.781.156 1.16.104.378.263.715.476 1.01.213.296.487.532.82.707.334.176.725.263 1.173.263.47 0 .87-.093 1.198-.28.328-.185.596-.43.804-.73.208-.302.358-.644.451-1.028a4.941 4.941 0 0 0-.008-2.375 2.993 2.993 0 0 0-.467-1.028 2.39 2.39 0 0 0-.83-.715c-.338-.18-.748-.271-1.23-.271-.47 0-.87.093-1.197.28a2.206 2.206 0 0 0-.788.74 3.222 3.222 0 0 0-.427 1.051 5.6 5.6 0 0 0-.13 1.217zm6.563 4.176h-1.394v-1.15h-.033c-.23.47-.59.81-1.083 1.018a4.128 4.128 0 0 1-1.624.313c-.657 0-1.228-.12-1.715-.362a3.53 3.53 0 0 1-1.214-.97 4.229 4.229 0 0 1-.73-1.413 5.82 5.82 0 0 1-.246-1.71c0-.603.079-1.173.237-1.71.159-.537.4-1.005.722-1.405.323-.4.728-.718 1.215-.953.486-.236 1.052-.354 1.698-.354.218 0 .454.022.705.066.252.044.503.118.755.222.252.104.49.24.714.41.224.17.413.382.566.634h.033V16h1.394v11.737z"/><path d="M36 3.183h1.002V7.02l3.816-3.836h1.296l-3.173 3.104 3.3 4.59h-1.265l-2.72-3.89-1.254 1.196v2.694H36V3.183zm10.932 4.375a1.908 1.908 0 0 0-.142-.614 1.573 1.573 0 0 0-.327-.501 1.504 1.504 0 0 0-1.102-.458 1.53 1.53 0 0 0-.627.124 1.448 1.448 0 0 0-.48.34c-.133.143-.238.31-.316.5-.077.19-.123.394-.137.61h3.131zm.865 1.552c-.12.625-.383 1.095-.791 1.412-.408.316-.92.474-1.54.474-.435 0-.813-.072-1.132-.216a2.238 2.238 0 0 1-.807-.603 2.581 2.581 0 0 1-.49-.927c-.109-.36-.17-.75-.185-1.175 0-.423.064-.811.19-1.163.127-.352.304-.658.533-.916a2.42 2.42 0 0 1 .811-.604 2.432 2.432 0 0 1 1.028-.215c.485 0 .887.102 1.207.307.32.205.577.465.77.781.193.316.327.661.4 1.035.074.373.104.729.09 1.066h-4.08c-.007.245.021.476.085.695a1.511 1.511 0 0 0 .843.986c.218.101.474.151.77.151.379 0 .69-.09.932-.27.243-.179.403-.452.48-.818h.886zm5.06-1.552a1.908 1.908 0 0 0-.142-.614 1.573 1.573 0 0 0-.327-.501 1.504 1.504 0 0 0-1.102-.458 1.53 1.53 0 0 0-.627.124 1.448 1.448 0 0 0-.48.34c-.133.143-.239.31-.316.5-.077.19-.123.394-.137.61h3.13zm.864 1.552c-.12.625-.383 1.095-.79 1.412-.408.316-.921.474-1.54.474-.435 0-.813-.072-1.133-.216a2.238 2.238 0 0 1-.806-.603 2.581 2.581 0 0 1-.49-.927c-.11-.36-.17-.75-.185-1.175 0-.423.063-.811.19-1.163.126-.352.304-.658.532-.916.229-.259.5-.46.812-.604a2.432 2.432 0 0 1 1.028-.215c.485 0 .887.102 1.207.307.32.205.576.465.77.781.193.316.326.661.4 1.035.074.373.104.729.09 1.066h-4.08c-.007.245.021.476.084.695a1.511 1.511 0 0 0 .843.986c.218.101.475.151.77.151.38 0 .69-.09.933-.27.243-.179.403-.452.48-.818h.885zm1.308-3.804h.896v.754h.02c.148-.309.38-.533.697-.673.316-.14.664-.21 1.043-.21.422 0 .79.079 1.102.237.313.158.573.372.78.641.207.27.364.58.47.932.105.352.157.726.157 1.12 0 .396-.05.77-.153 1.121a2.66 2.66 0 0 1-.463.922 2.194 2.194 0 0 1-.78.62 2.5 2.5 0 0 1-1.092.226 2.637 2.637 0 0 1-.938-.184 1.905 1.905 0 0 1-.459-.264 1.465 1.465 0 0 1-.363-.414h-.021V13h-.896V5.306zm4.216 2.737c0-.259-.033-.512-.1-.76a2.07 2.07 0 0 0-.305-.662 1.508 1.508 0 0 0-.528-.464 1.572 1.572 0 0 0-.753-.172c-.302 0-.559.061-.77.183-.21.122-.383.282-.516.48a2.02 2.02 0 0 0-.29.673 3.299 3.299 0 0 0 .005 1.557c.063.255.163.48.3.674.137.194.315.35.533.468.218.119.481.178.79.178.31 0 .568-.06.775-.183.208-.122.375-.284.501-.485.127-.201.218-.43.274-.69a3.75 3.75 0 0 0 .084-.797zm6.769-2.608c-.057-.553-.252-.953-.586-1.201-.333-.248-.76-.372-1.28-.372-.211 0-.419.022-.622.065a1.63 1.63 0 0 0-.543.215 1.12 1.12 0 0 0-.38.404 1.272 1.272 0 0 0-.142.63c0 .238.068.43.205.577.137.148.32.268.549.361.228.094.486.17.774.232.289.061.582.127.88.2.3.071.593.156.881.252a2.9 2.9 0 0 1 .775.394c.228.165.411.373.548.625.137.251.206.567.206.948 0 .41-.09.76-.27 1.05a2.215 2.215 0 0 1-.69.712 2.97 2.97 0 0 1-.943.399 4.481 4.481 0 0 1-2.235-.038 2.929 2.929 0 0 1-.991-.49c-.285-.22-.51-.5-.675-.84-.165-.342-.248-.746-.248-1.213h.95c0 .323.06.601.184.835.123.233.284.426.485.576.2.151.434.263.7.335.268.071.542.107.823.107.225 0 .452-.021.68-.064.228-.043.434-.117.617-.221a1.24 1.24 0 0 0 .442-.426c.113-.18.17-.41.17-.69 0-.265-.07-.48-.206-.646a1.52 1.52 0 0 0-.549-.404 3.951 3.951 0 0 0-.775-.253l-.88-.2a11.767 11.767 0 0 1-.88-.237 3.153 3.153 0 0 1-.775-.355 1.687 1.687 0 0 1-.548-.572c-.137-.233-.206-.526-.206-.878 0-.388.078-.724.232-1.007.155-.284.36-.518.617-.7a2.74 2.74 0 0 1 .875-.41c.327-.09.662-.135 1.007-.135.386 0 .745.047 1.075.14.33.093.62.24.87.442.25.201.446.454.59.76.144.305.223.67.237 1.093h-.948zm3.247 2.662c0 .338.043.638.131.9.088.262.21.481.364.657a1.58 1.58 0 0 0 1.202.544 1.586 1.586 0 0 0 1.202-.544c.154-.176.275-.395.363-.657.088-.262.132-.562.132-.9 0-.338-.044-.638-.132-.9a1.954 1.954 0 0 0-.363-.663 1.551 1.551 0 0 0-1.202-.55 1.556 1.556 0 0 0-1.202.551c-.155.18-.276.4-.364.662a2.828 2.828 0 0 0-.131.9zm-.95 0c0-.41.057-.792.17-1.148.112-.355.28-.664.505-.926.225-.263.503-.47.833-.62.33-.15.71-.226 1.139-.226.436 0 .817.075 1.144.226a2.4 2.4 0 0 1 .827.62 2.6 2.6 0 0 1 .506.926c.113.356.169.738.169 1.148 0 .41-.056.79-.169 1.142a2.6 2.6 0 0 1-.506.922c-.225.262-.5.467-.827.614-.327.147-.708.22-1.144.22a2.77 2.77 0 0 1-1.139-.22 2.33 2.33 0 0 1-.833-.614 2.623 2.623 0 0 1-.506-.922 3.734 3.734 0 0 1-.168-1.142zm6.663-4.914h.896v7.694h-.896V3.183zm3.5 1.12h-.896v-1.12h.896v1.12zm-.896 1.003h.896v5.571h-.896V5.306zm3.205 2.834c0 .259.034.512.1.76.067.248.169.469.306.663.137.193.313.348.527.463.214.115.466.172.754.172.302 0 .559-.06.77-.183.21-.122.382-.282.516-.48.134-.197.23-.421.29-.673a3.299 3.299 0 0 0-.005-1.557 1.98 1.98 0 0 0-.3-.674 1.545 1.545 0 0 0-.533-.468 1.633 1.633 0 0 0-.79-.178c-.303 0-.56.061-.77.183a1.44 1.44 0 0 0-.506.485 2.136 2.136 0 0 0-.275.69 3.743 3.743 0 0 0-.084.797zM85 10.877h-.896v-.754h-.021c-.148.309-.38.531-.696.668a2.606 2.606 0 0 1-1.044.205c-.421 0-.789-.08-1.101-.237a2.277 2.277 0 0 1-.78-.636 2.792 2.792 0 0 1-.47-.927 3.887 3.887 0 0 1-.158-1.12 4 4 0 0 1 .153-1.121 2.66 2.66 0 0 1 .464-.922c.207-.262.467-.47.78-.625a2.435 2.435 0 0 1 1.091-.231c.14 0 .292.014.454.043.161.029.323.077.485.145.161.069.314.158.458.27.144.111.265.25.364.415h.02V3.183H85v7.694z" opacity=".8"/></g></g></svg>